<svg width="16" height="13" viewBox="0 0 16 13" fill="none" xmlns="http://www.w3.org/2000/svg">
<path d="M1.33337 6.46932C1.33337 4.111 1.33337 2.93183 2.03524 2.14459C2.1475 2.01867 2.27123 1.90222 2.40501 1.79657C3.24146 1.13599 4.49432 1.13599 7.00004 1.13599H9.00004C11.5058 1.13599 12.7586 1.13599 13.5951 1.79657C13.7289 1.90222 13.8526 2.01867 13.9648 2.14459C14.6667 2.93183 14.6667 4.111 14.6667 6.46932C14.6667 8.82764 14.6667 10.0068 13.9648 10.7941C13.8526 10.92 13.7289 11.0364 13.5951 11.1421C12.7586 11.8027 11.5058 11.8027 9.00004 11.8027H7.00004C4.49432 11.8027 3.24146 11.8027 2.40501 11.1421C2.27123 11.0364 2.1475 10.92 2.03524 10.7941C1.33337 10.0068 1.33337 8.82764 1.33337 6.46932Z" stroke="#F4F4F5" stroke-width="1.5" stroke-linecap="round" stroke-linejoin="round"/>
<path d="M6.66675 9.13599H7.66675" stroke="#F4F4F5" stroke-width="1.5" stroke-miterlimit="10" stroke-linecap="round" stroke-linejoin="round"/>
<path d="M9.66675 9.13599L12.0001 9.13599" stroke="#F4F4F5" stroke-width="1.5" stroke-miterlimit="10" stroke-linecap="round" stroke-linejoin="round"/>
<path d="M1.33337 4.46924H14.6667" stroke="#F4F4F5" stroke-width="1.5" stroke-linejoin="round"/>
</svg>
