<svg width="20" height="20" viewBox="0 0 20 20" fill="none" xmlns="http://www.w3.org/2000/svg">
<path d="M9.03033 8.20441C9.32322 8.4973 9.32322 8.97218 9.03033 9.26507C8.73744 9.55796 8.26256 9.55796 7.96967 9.26507L9.03033 8.20441ZM0.46967 1.76507C0.176777 1.47218 0.176777 0.997304 0.46967 0.704412C0.762563 0.411518 1.23744 0.411518 1.53033 0.704412L0.46967 1.76507ZM1 1.23474L1.53033 0.704412L9.03033 8.20441L8.5 8.73474L7.96967 9.26507L0.46967 1.76507L1 1.23474Z" fill="#F4F4F5"/>
<path d="M10.9697 12.2651C10.6768 11.9722 10.6768 11.4973 10.9697 11.2044C11.2626 10.9115 11.7374 10.9115 12.0303 11.2044L10.9697 12.2651ZM19.5303 18.7044C19.8232 18.9973 19.8232 19.4722 19.5303 19.7651C19.2374 20.058 18.7626 20.058 18.4697 19.7651L19.5303 18.7044ZM11.5 11.7347L12.0303 11.2044L19.5303 18.7044L19 19.2347L18.4697 19.7651L10.9697 12.2651L11.5 11.7347Z" fill="#F4F4F5"/>
<path d="M4.5 8.96853C5.34441 8.98053 8.14087 9.56146 8.73379 8.96853C9.32672 8.37561 8.74579 5.57915 8.73379 4.73474" stroke="#F4F4F5" stroke-width="1.5" stroke-linecap="round" stroke-linejoin="round"/>
<path d="M11.2662 15.7347C11.2542 14.8903 10.6733 12.0939 11.2662 11.5009C11.8591 10.908 14.6556 11.489 15.5 11.501" stroke="#F4F4F5" stroke-width="1.5" stroke-linecap="round" stroke-linejoin="round"/>
</svg>
