<svg width="16" height="14" viewBox="0 0 16 14" fill="none" xmlns="http://www.w3.org/2000/svg">
<path d="M12.4108 11.8025H12.7376C13.5041 11.8025 14.1138 11.4532 14.6613 10.9649C16.0521 9.72421 12.7828 8.46916 11.6667 8.46916M10.3334 1.84834C10.4847 1.81831 10.642 1.80249 10.8032 1.80249C12.0165 1.80249 13 2.69792 13 3.80249C13 4.90706 12.0165 5.80249 10.8032 5.80249C10.642 5.80249 10.4847 5.78667 10.3334 5.75665" stroke="#F4F4F5" stroke-width="1.5" stroke-linecap="round"/>
<path d="M2.98754 9.20995C2.20156 9.63116 0.140758 10.4912 1.39592 11.5674C2.00906 12.0932 2.69194 12.4692 3.55048 12.4692H8.44952C9.30806 12.4692 9.99094 12.0932 10.6041 11.5674C11.8592 10.4912 9.79844 9.63116 9.01246 9.20995C7.16934 8.22223 4.83066 8.22223 2.98754 9.20995Z" stroke="#F4F4F5" stroke-width="1.5"/>
<path d="M8.66667 3.46916C8.66667 4.94192 7.47276 6.13582 6 6.13582C4.52724 6.13582 3.33333 4.94192 3.33333 3.46916C3.33333 1.9964 4.52724 0.80249 6 0.80249C7.47276 0.80249 8.66667 1.9964 8.66667 3.46916Z" stroke="#F4F4F5" stroke-width="1.5"/>
</svg>
