<svg width="14" height="16" viewBox="0 0 14 16" fill="none" xmlns="http://www.w3.org/2000/svg">
<path d="M9.66675 11.3333L5.00008 11.3333" stroke="#F4F4F5" stroke-width="1.5" stroke-linecap="round" stroke-linejoin="round"/>
<path d="M9.66675 8.6665L7.66675 8.6665" stroke="#F4F4F5" stroke-width="1.5" stroke-linecap="round" stroke-linejoin="round"/>
<path d="M12.6667 9.33317C12.6667 11.8473 12.6667 13.1044 11.8369 13.8855C11.007 14.6665 9.67137 14.6665 7.00008 14.6665H6.48493C4.31079 14.6665 3.22372 14.6665 2.46879 14.1346C2.25249 13.9822 2.06047 13.8015 1.89855 13.5979C1.33341 12.8874 1.33341 11.8643 1.33341 9.81802V8.12105C1.33341 6.1456 1.33341 5.15788 1.64604 4.369C2.14862 3.10079 3.21151 2.10043 4.55899 1.62741C5.39717 1.33317 6.44662 1.33317 8.54554 1.33317C9.74491 1.33317 10.3446 1.33317 10.8236 1.5013C11.5936 1.7716 12.2009 2.34324 12.4881 3.06793C12.6667 3.51872 12.6667 4.08313 12.6667 5.21196V9.33317Z" stroke="#F4F4F5" stroke-width="1.5" stroke-linejoin="round"/>
<path d="M1.33333 8C1.33333 6.7727 2.32826 5.77778 3.55556 5.77778C3.99941 5.77778 4.52269 5.85555 4.95424 5.73992C5.33768 5.63718 5.63718 5.33768 5.73992 4.95424C5.85555 4.52269 5.77778 3.99941 5.77778 3.55556C5.77778 2.32826 6.7727 1.33333 8 1.33333" stroke="#F4F4F5" stroke-width="1.5" stroke-linecap="round" stroke-linejoin="round"/>
</svg>
