<svg width="14" height="14" viewBox="0 0 14 14" fill="none" xmlns="http://www.w3.org/2000/svg">
<path fill-rule="evenodd" clip-rule="evenodd" d="M13.4218 6.79494C13.574 6.44214 13.5093 6.00427 13.1696 5.70706L9.26334 2.28885C9.1861 2.22126 9.10746 2.15048 9.02728 2.07831C8.45111 1.55971 7.79494 0.969116 6.99979 0.969116C6.20465 0.969116 5.54848 1.55971 4.97231 2.07831C4.89213 2.15047 4.8135 2.22125 4.73626 2.28884L0.829937 5.70706C0.490285 6.00427 0.425543 6.44214 0.577744 6.79494C0.695593 7.06812 0.937288 7.28114 1.24501 7.35946C1.38319 7.39463 1.45229 7.41222 1.48034 7.44816C1.50838 7.48411 1.50859 7.54173 1.50901 7.65698C1.51097 8.2034 1.51528 9.4165 1.51528 9.5619C1.51526 10.4588 1.51525 11.1866 1.59871 11.7599C1.6861 12.3603 1.87377 12.8632 2.30171 13.2585C2.72401 13.6485 3.25178 13.8148 3.88209 13.8931C4.49465 13.9691 5.27549 13.9691 6.25332 13.9691H7.74623C8.72407 13.9691 9.50493 13.9691 10.1175 13.8931C10.7478 13.8148 11.2756 13.6485 11.6979 13.2585C12.1258 12.8632 12.3135 12.3603 12.4009 11.7599C12.4843 11.1866 12.4843 10.4588 12.4843 9.56192C12.4843 9.41651 12.4886 8.2034 12.4906 7.65698V7.65697C12.491 7.54173 12.4912 7.48411 12.5192 7.44816C12.5473 7.41222 12.6164 7.39463 12.7546 7.35946C13.0623 7.28114 13.304 7.06812 13.4218 6.79494ZM7 9.30245C6.53976 9.30245 6.16667 9.67555 6.16667 10.1358C6.16667 10.596 6.53976 10.9691 7 10.9691H7.00599C7.46622 10.9691 7.83932 10.596 7.83932 10.1358C7.83932 9.67555 7.46622 9.30245 7.00599 9.30245H7Z" fill="#F4F4F5"/>
</svg>
