<svg width="120" height="98" viewBox="0 0 120 98" fill="none" xmlns="http://www.w3.org/2000/svg">
<path d="M0 98.0204C0 97.9825 26.02 97.95 58.1108 97.95C90.2015 97.95 116.227 97.9825 116.227 98.0204C116.227 98.0583 90.2118 98.0908 58.1108 98.0908C26.0097 98.0908 0 98.061 0 98.0204Z" fill="#3B3C3F"/>
<path d="M58.7588 22.3665C58.7201 22.3665 58.7098 20.8763 58.733 19.0393C58.7562 17.2022 58.8053 15.7147 58.8414 15.7147C58.8775 15.7147 58.8904 17.2049 58.8672 19.042C58.844 20.879 58.7949 22.3665 58.7588 22.3665Z" fill="#3B3C3F"/>
<path d="M49.8099 24.2549C49.3357 23.6677 48.8961 23.0505 48.4936 22.4071C48.0557 21.7903 47.654 21.146 47.2908 20.4779C47.7644 21.065 48.2031 21.6821 48.6046 22.3258C49.0444 22.9417 49.447 23.586 49.8099 24.2549Z" fill="#3B3C3F"/>
<path d="M68.2209 23.797C68.0556 23.9939 67.8742 24.1752 67.6788 24.3389C67.333 24.6586 66.8426 25.0894 66.2902 25.5473C65.7379 26.0052 65.2268 26.4089 64.8525 26.6907C64.6572 26.8545 64.4472 26.9979 64.2253 27.1188C64.4024 26.9343 64.5931 26.7649 64.7958 26.6121L66.2076 25.4389L67.6169 24.263C67.8045 24.089 68.0066 23.933 68.2209 23.797Z" fill="#3B3C3F"/>
<path d="M53.7311 17.79L53.8369 18.0149C53.8421 18.0266 53.85 18.0367 53.86 18.0443C53.8699 18.0519 53.8815 18.0567 53.8937 18.0582L54.1312 18.0962C54.1455 18.0977 54.1591 18.1034 54.1703 18.1128C54.1816 18.1222 54.1901 18.1348 54.1947 18.1491C54.1993 18.1634 54.1999 18.1787 54.1964 18.1934C54.193 18.208 54.1855 18.2213 54.1751 18.2316L54.0021 18.4078C53.9935 18.4168 53.987 18.428 53.9834 18.4403C53.9798 18.4526 53.9792 18.4656 53.9815 18.4782L54.0202 18.7275C54.0232 18.7424 54.022 18.7578 54.0167 18.772C54.0115 18.7862 54.0025 18.7985 53.9907 18.8073C53.979 18.8162 53.965 18.8214 53.9505 18.8221C53.9361 18.8228 53.9217 18.8191 53.9092 18.8115L53.6976 18.695C53.6862 18.6896 53.6739 18.6868 53.6614 18.6868C53.649 18.6868 53.6366 18.6896 53.6253 18.695L53.4136 18.8115C53.4011 18.8191 53.3868 18.8228 53.3723 18.8221C53.3578 18.8214 53.3439 18.8162 53.3321 18.8073C53.3204 18.7985 53.3113 18.7862 53.3061 18.772C53.3009 18.7578 53.2997 18.7424 53.3026 18.7275L53.3439 18.4782C53.3453 18.4654 53.3439 18.4524 53.3399 18.4402C53.3359 18.428 53.3293 18.4169 53.3207 18.4078L53.1504 18.2316C53.1399 18.2215 53.1325 18.2084 53.1289 18.194C53.1253 18.1796 53.1257 18.1643 53.13 18.1501C53.1344 18.1359 53.1425 18.1233 53.1534 18.1137C53.1643 18.1042 53.1776 18.0981 53.1917 18.0962L53.4291 18.0582C53.4414 18.0569 53.4531 18.0522 53.4631 18.0446C53.4731 18.037 53.4809 18.0267 53.4859 18.0149L53.5917 17.79C53.5981 17.7763 53.608 17.7647 53.6203 17.7566C53.6326 17.7484 53.6469 17.7441 53.6614 17.7441C53.676 17.7441 53.6902 17.7484 53.7025 17.7566C53.7149 17.7647 53.7248 17.7763 53.7311 17.79Z" fill="#2E3081"/>
<path d="M69.9454 27.9316L70.0512 28.1565C70.0572 28.1684 70.0656 28.1787 70.0759 28.1866C70.0862 28.1946 70.0981 28.2 70.1106 28.2026L70.3481 28.2378C70.3621 28.2403 70.3753 28.2468 70.386 28.2567C70.3968 28.2665 70.4048 28.2793 70.409 28.2936C70.4133 28.3079 70.4137 28.3232 70.4103 28.3377C70.4068 28.3522 70.3996 28.3655 70.3894 28.376L70.219 28.5521C70.2101 28.561 70.2033 28.5721 70.1992 28.5843C70.1952 28.5966 70.194 28.6097 70.1958 28.6225L70.2371 28.8691C70.2396 28.8839 70.2381 28.8992 70.2328 28.9132C70.2275 28.9272 70.2185 28.9394 70.207 28.9483C70.1955 28.9573 70.1819 28.9628 70.1676 28.9641C70.1533 28.9654 70.1389 28.9625 70.1261 28.9558L69.9144 28.8366C69.9031 28.8312 69.8908 28.8284 69.8783 28.8284C69.8658 28.8284 69.8535 28.8312 69.8422 28.8366L69.6305 28.9558C69.6177 28.9625 69.6033 28.9654 69.589 28.9641C69.5747 28.9628 69.5611 28.9573 69.5496 28.9483C69.5381 28.9394 69.5292 28.9272 69.5239 28.9132C69.5185 28.8992 69.5171 28.8839 69.5195 28.8691L69.5583 28.6225C69.5611 28.6099 69.5606 28.5968 69.557 28.5844C69.5534 28.572 69.5467 28.5609 69.5376 28.5521L69.3647 28.376C69.3544 28.3653 69.3472 28.3518 69.3439 28.3371C69.3406 28.3224 69.3412 28.307 69.3458 28.2926C69.3503 28.2782 69.3586 28.2655 69.3697 28.2558C69.3808 28.2461 69.3943 28.2399 69.4086 28.2378L69.646 28.2026C69.6582 28.1999 69.6696 28.1943 69.6794 28.1863C69.6892 28.1784 69.6972 28.1682 69.7028 28.1565L69.8086 27.9316C69.8152 27.9186 69.8251 27.9077 69.8371 27.9001C69.8492 27.8924 69.863 27.8884 69.877 27.8884C69.8911 27.8884 69.9049 27.8924 69.9169 27.9001C69.929 27.9077 69.9388 27.9186 69.9454 27.9316Z" fill="#2E3081"/>
<path d="M64.6748 18.6842L64.8684 19.096C64.8786 19.1173 64.8936 19.1358 64.912 19.15C64.9304 19.1641 64.9517 19.1734 64.9742 19.1773L65.4052 19.2423C65.4309 19.2462 65.4551 19.2576 65.4749 19.2752C65.4948 19.2928 65.5096 19.3158 65.5176 19.3417C65.5257 19.3676 65.5267 19.3954 65.5205 19.4219C65.5143 19.4484 65.5012 19.4725 65.4827 19.4916L65.1703 19.8113C65.1543 19.8281 65.1424 19.8486 65.1357 19.8713C65.1289 19.894 65.1276 19.918 65.1316 19.9414L65.2039 20.3938C65.2082 20.4206 65.2053 20.4482 65.1956 20.4733C65.1859 20.4985 65.1696 20.5203 65.1487 20.5364C65.1278 20.5524 65.1031 20.562 65.0773 20.5641C65.0514 20.5662 65.0256 20.5607 65.0026 20.5483L64.6154 20.3342C64.5954 20.3235 64.5733 20.3179 64.5509 20.3179C64.5285 20.3179 64.5063 20.3235 64.4864 20.3342L64.0992 20.5483C64.0761 20.5615 64.0499 20.5676 64.0237 20.5659C63.9975 20.5641 63.9722 20.5546 63.9509 20.5385C63.9296 20.5223 63.913 20.5002 63.9032 20.4746C63.8934 20.449 63.8906 20.421 63.8953 20.3938L63.9701 19.9414C63.9737 19.9178 63.9718 19.8937 63.9646 19.871C63.9574 19.8484 63.9451 19.8279 63.9288 19.8113L63.6165 19.4916C63.598 19.4725 63.5849 19.4484 63.5787 19.4219C63.5725 19.3954 63.5735 19.3676 63.5816 19.3417C63.5896 19.3158 63.6044 19.2928 63.6243 19.2752C63.6441 19.2576 63.6683 19.2462 63.694 19.2423L64.1276 19.1773C64.1498 19.1735 64.1707 19.1641 64.1887 19.1499C64.2067 19.1358 64.2211 19.1173 64.2308 19.096L64.4244 18.6842C64.4359 18.6596 64.4537 18.6388 64.4758 18.6243C64.4979 18.6099 64.5235 18.6022 64.5496 18.6022C64.5757 18.6022 64.6012 18.6099 64.6234 18.6243C64.6455 18.6388 64.6633 18.6596 64.6748 18.6842Z" fill="#2E3081"/>
<path d="M44.6479 29.3352L44.8415 29.7444C44.8515 29.7654 44.8661 29.7837 44.884 29.7978C44.9019 29.8119 44.9227 29.8214 44.9447 29.8257L45.3784 29.8907C45.4041 29.8946 45.4282 29.906 45.4481 29.9236C45.4679 29.9412 45.4827 29.9642 45.4908 29.9901C45.4988 30.016 45.4998 30.0438 45.4936 30.0703C45.4874 30.0967 45.4743 30.1209 45.4558 30.14L45.1435 30.457C45.127 30.4729 45.1146 30.4929 45.1074 30.5151C45.1002 30.5374 45.0984 30.5612 45.1022 30.5843L45.177 31.0368C45.1817 31.064 45.179 31.092 45.1691 31.1176C45.1593 31.1431 45.1428 31.1653 45.1214 31.1815C45.1001 31.1976 45.0749 31.2071 45.0486 31.2088C45.0224 31.2106 44.9962 31.2045 44.9731 31.1912L44.5886 30.9772C44.5681 30.9665 44.5456 30.9609 44.5227 30.9609C44.4999 30.9609 44.4774 30.9665 44.4569 30.9772L44.0698 31.1912C44.0467 31.2037 44.0209 31.2092 43.9951 31.2071C43.9693 31.205 43.9445 31.1954 43.9236 31.1793C43.9027 31.1633 43.8865 31.1415 43.8767 31.1163C43.867 31.0911 43.8641 31.0636 43.8684 31.0368L43.9433 30.5843C43.9471 30.5612 43.9453 30.5374 43.938 30.5151C43.9308 30.4929 43.9184 30.4729 43.902 30.457L43.5897 30.1345C43.5711 30.1155 43.558 30.0913 43.5519 30.0648C43.5457 30.0384 43.5467 30.0106 43.5547 29.9847C43.5628 29.9588 43.5776 29.9357 43.5974 29.9182C43.6173 29.9006 43.6414 29.8892 43.6671 29.8853L44.0981 29.8202C44.1206 29.8164 44.142 29.8071 44.1603 29.7929C44.1787 29.7788 44.1937 29.7603 44.204 29.739L44.3976 29.3298C44.4095 29.3055 44.4277 29.2851 44.4501 29.2711C44.4725 29.2571 44.4983 29.25 44.5243 29.2505C44.5504 29.2511 44.5758 29.2593 44.5977 29.2743C44.6195 29.2893 44.6369 29.3104 44.6479 29.3352Z" fill="#2E3081"/>
<path d="M67.1059 36.3771L67.2995 36.7862C67.3098 36.8075 67.3247 36.826 67.3431 36.8401C67.3615 36.8543 67.3828 36.8636 67.4053 36.8675L67.8364 36.9325C67.8621 36.9364 67.8862 36.9478 67.9061 36.9654C67.9259 36.983 67.9407 37.006 67.9488 37.0319C67.9568 37.0578 67.9578 37.0856 67.9516 37.1121C67.9455 37.1385 67.9324 37.1627 67.9138 37.1818L67.6015 37.5015C67.585 37.5174 67.5726 37.5374 67.5654 37.5597C67.5582 37.5819 67.5564 37.6057 67.5602 37.6288L67.635 38.0813C67.6397 38.1085 67.637 38.1365 67.6271 38.1621C67.6173 38.1877 67.6008 38.2098 67.5794 38.226C67.5581 38.2421 67.5329 38.2516 67.5066 38.2533C67.4804 38.2551 67.4542 38.249 67.4311 38.2358L67.0466 38.0217C67.0261 38.011 67.0036 38.0054 66.9807 38.0054C66.9579 38.0054 66.9354 38.011 66.9149 38.0217L66.5303 38.2358C66.5073 38.249 66.4811 38.2551 66.4548 38.2533C66.4286 38.2516 66.4034 38.2421 66.382 38.226C66.3607 38.2098 66.3442 38.1877 66.3343 38.1621C66.3245 38.1365 66.3218 38.1085 66.3264 38.0813L66.4013 37.6288C66.4051 37.6057 66.4033 37.5819 66.3961 37.5597C66.3888 37.5374 66.3764 37.5174 66.36 37.5015L66.0477 37.1791C66.0291 37.16 66.016 37.1358 66.0099 37.1094C66.0037 37.0829 66.0047 37.0551 66.0127 37.0292C66.0208 37.0033 66.0356 36.9802 66.0554 36.9627C66.0753 36.9451 66.0994 36.9337 66.1251 36.9298L66.5562 36.8648C66.5786 36.8609 66.6 36.8516 66.6184 36.8374C66.6367 36.8233 66.6517 36.8048 66.662 36.7835L66.8556 36.3743C66.8673 36.3499 66.8853 36.3293 66.9076 36.3151C66.9298 36.3008 66.9555 36.2934 66.9816 36.2937C67.0076 36.294 67.0331 36.3019 67.0551 36.3167C67.0771 36.3314 67.0947 36.3523 67.1059 36.3771Z" fill="#2E3081"/>
<path d="M79.3609 4.35659L83.6197 0.899292L84.0301 6.51334L89.724 6.11504L85.953 11.2874L89.4556 14.91L83.5113 15.9288L84.8586 22.8054L80.5043 17.7604L75.226 20.9928L75.2853 15.3598L69.6069 13.6609L73.9587 10.2633L70.7504 5.66256L75.417 6.4456L75.5331 0.937225L79.3609 4.35659Z" fill="white"/>
<path d="M69.5812 13.6256L69.5115 13.6798L69.5941 13.7042L75.2725 15.4057L75.2415 15.3597C75.2209 17.1506 75.2002 19.05 75.1796 20.9927V21.0794L75.2518 21.036L80.5302 17.8036H80.4708L81.6581 19.18L84.8251 22.8514L84.9413 22.9869L84.9077 22.808C84.4465 20.4598 83.9966 18.1667 83.5578 15.9287L83.5217 15.9856L89.4582 14.9668H89.5433L89.4814 14.9018L85.9763 11.2819V11.3388L89.7447 6.16369L89.7937 6.09595H89.7137L84.0198 6.49966L84.0508 6.52947C83.8882 4.31853 83.7488 2.46525 83.6352 0.915423V0.87207L83.6017 0.899167L80.445 3.47588L79.6319 4.14241L79.3558 4.37272L79.6319 4.15596L80.4476 3.50027L83.6352 0.923551L83.5991 0.907295C83.7075 2.4517 83.8417 4.3104 83.9992 6.52405V6.55656H84.0275L89.724 6.16369L89.6905 6.10137C88.5187 7.70809 87.2565 9.43945 85.9169 11.2711L85.8937 11.3036L85.9195 11.328C87.0431 12.493 88.2106 13.7015 89.422 14.9532L89.4453 14.8774L83.5087 15.8907H83.4623V15.9395C83.8959 18.1703 84.3442 20.4634 84.807 22.8189L84.8871 22.7755L81.7278 19.1015C81.32 18.6327 80.9147 18.1613 80.5405 17.725L80.5147 17.6952L80.4811 17.7169L75.2028 20.952L75.2725 20.9954C75.2931 19.0527 75.3112 17.1506 75.3318 15.3624V15.3244H75.2983L69.6199 13.6283L69.6354 13.7096L73.9845 10.3065L74.0155 10.2821L73.9923 10.2469L70.7814 5.64076L70.7478 5.70037L75.4144 6.47528H75.448V6.44005C75.4919 4.30227 75.528 2.44357 75.559 0.931679L75.5228 0.947935L78.362 3.47859L79.1028 4.13158C79.268 4.27789 79.3609 4.34833 79.3609 4.34833L79.1028 4.11803L78.3672 3.45421L75.528 0.912713L75.4945 0.882908V0.931679C75.4609 2.44086 75.417 4.30228 75.368 6.43735L75.4041 6.40754L70.7375 5.62179H70.6523L70.7039 5.69224L73.9071 10.2984V10.2387" fill="#3B3C3F"/>
<path d="M78.8653 8.18496L79.2602 12.0324C79.2753 12.1846 79.343 12.3257 79.4505 12.429C79.558 12.5324 79.6978 12.5908 79.8435 12.5933C79.997 12.5964 80.1456 12.5373 80.2586 12.4283C80.3716 12.3193 80.4402 12.1688 80.4501 12.008L80.7082 8.10368C80.7123 8.034 80.7023 7.9642 80.6789 7.89884C80.6555 7.83349 80.6193 7.77406 80.5725 7.72444C80.5257 7.67482 80.4695 7.63613 80.4075 7.6109C80.3454 7.58567 80.2791 7.57447 80.2126 7.57804L79.3144 7.63494C79.2495 7.63707 79.1857 7.65337 79.1272 7.68282C79.0686 7.71227 79.0165 7.7542 78.9743 7.80596C78.932 7.85771 78.9005 7.91815 78.8817 7.9834C78.863 8.04866 78.8574 8.11731 78.8653 8.18496Z" fill="#14B8A6"/>
<path d="M80.7315 14.3896C80.6825 14.5687 80.5841 14.7285 80.4487 14.8489C80.3132 14.9693 80.1469 15.0448 79.9705 15.0661C79.7942 15.0873 79.6159 15.0532 79.458 14.9681C79.3001 14.8831 79.1698 14.7508 79.0834 14.588C78.9971 14.4253 78.9586 14.2393 78.9729 14.0536C78.9871 13.8679 79.0534 13.6908 79.1635 13.5446C79.2735 13.3985 79.4224 13.2898 79.5912 13.2324C79.76 13.1749 79.9412 13.1712 80.112 13.2218C80.2259 13.2555 80.3323 13.3125 80.4251 13.3895C80.518 13.4666 80.5954 13.5621 80.6529 13.6706C80.7105 13.7791 80.7471 13.8985 80.7606 14.0219C80.774 14.1453 80.7642 14.2702 80.7315 14.3896Z" fill="#14B8A6"/>
<path d="M119.148 59.7871C117.969 58.37 115.971 58.072 114.559 56.9123C112.657 55.3489 112.174 52.5528 112.107 50.014C112.04 47.4752 112.226 44.8145 111.175 42.5277C110.55 41.228 109.568 40.1546 108.356 39.4453C107.145 38.736 105.759 38.4233 104.377 38.5474L101.194 41.7988C102.642 43.4895 103.479 46.1096 103.135 48.3558C102.792 50.6019 100.941 54.8802 100.766 57.148C100.386 62.0847 102.235 65.6748 106.532 67.715C107.593 68.219 108.767 68.5577 109.918 68.387C111.07 68.2163 112.195 67.4468 112.574 66.2898C114.466 67.2842 116.934 67.1839 118.539 65.7479C120.145 64.3119 120.542 61.4588 119.148 59.7871Z" fill="#3B3C3F"/>
<path d="M57.5248 36.2361C57.5248 36.2361 58.9005 33.4453 59.2438 33.15C59.5871 32.8546 60.0878 32.9197 60.0568 33.4209C60.0259 33.9222 59.4322 35.3176 59.4322 35.3176C59.4322 35.3176 60.4646 32.1366 61.2751 31.5107C62.0856 30.8848 62.1836 31.3807 62.1836 31.8413C62.1836 31.8413 62.7773 29.7821 63.5594 30.1533C64.3414 30.5245 63.7142 31.8061 63.7142 31.8061C63.7142 31.8061 64.5583 30.1993 65.1829 30.7738C65.8075 31.3482 64.1221 34.399 64.1221 34.399C64.1221 34.399 64.7467 34.1037 64.5583 35.285C64.3698 36.4664 64.153 38.1408 63.6213 39.1244C63.0896 40.1079 61.8713 42.4733 60.9318 43.8849C59.9923 45.2966 59.6852 57.7954 59.6852 57.7954C59.6852 57.7954 55.6199 60.3233 53.6505 59.9955L52.8762 59.8627L55.4083 44.7357C55.4083 44.7357 54.8611 43.6844 54.9798 41.8474C55.0985 40.0104 57.5248 36.2361 57.5248 36.2361Z" fill="#B48677"/>
<path d="M62.7825 35.7025C62.5504 35.7426 62.3157 35.7643 62.0805 35.7675C61.6443 35.8 61.048 35.8569 60.3924 35.9653C59.7368 36.0737 59.1509 36.2118 58.7276 36.3175C58.5015 36.3897 58.2702 36.4423 58.0359 36.4747C58.2484 36.3632 58.4728 36.2786 58.7044 36.2227C59.2513 36.0518 59.8083 35.9187 60.3718 35.8244C60.9356 35.7321 61.5048 35.6796 62.0753 35.6672C62.3115 35.6496 62.5489 35.6614 62.7825 35.7025Z" fill="#72564F"/>
<path d="M62.2664 31.6681C62.2196 31.8994 62.1469 32.1241 62.0495 32.3373C61.8947 32.741 61.6598 33.2911 61.3707 33.8844C61.0816 34.4778 60.7977 34.998 60.5757 35.3665C60.4686 35.5734 60.3395 35.767 60.1912 35.9437C60.2736 35.7254 60.3756 35.5158 60.4957 35.3178C60.6945 34.9357 60.9655 34.4101 61.252 33.8194C61.5385 33.2288 61.7837 32.6896 61.9618 32.2967C62.0466 32.0787 62.1484 31.8684 62.2664 31.6681Z" fill="#72564F"/>
<path d="M63.8615 31.4946C63.7708 31.7103 63.6619 31.917 63.5362 32.1124L62.7077 33.5728L61.8921 35.044C61.7909 35.2545 61.6716 35.455 61.5359 35.6428C61.6051 35.4175 61.6969 35.2004 61.8095 34.9953C61.9979 34.6051 62.2689 34.0768 62.5838 33.5024C62.8987 32.9279 63.2136 32.4186 63.4485 32.0582C63.5653 31.8545 63.7039 31.6654 63.8615 31.4946Z" fill="#72564F"/>
<path d="M58.4514 41.7175C58.4514 41.7175 58.4514 41.6822 58.4643 41.6172C58.4772 41.5522 58.503 41.4573 58.5392 41.3463C58.6478 41.0072 58.797 40.684 58.9831 40.3844C59.2594 39.94 59.609 39.551 60.0156 39.2356C60.4724 38.8779 61.0325 38.5799 61.4816 38.103C62.4082 37.1357 62.4908 35.7756 63.0742 35.0684C63.2799 34.7769 63.56 34.5524 63.882 34.4208C63.9702 34.3883 64.0623 34.3691 64.1556 34.3639C64.1873 34.3585 64.2195 34.3585 64.2511 34.3639C64.1318 34.3877 64.0144 34.4212 63.9001 34.4642C63.5989 34.6105 63.3399 34.8376 63.149 35.1226C62.8759 35.5555 62.6654 36.0284 62.5244 36.5261C62.326 37.1466 62.004 37.7156 61.5797 38.1951C61.1074 38.6937 60.5473 38.9863 60.093 39.3331C59.6906 39.634 59.3412 40.0063 59.0606 40.4332C58.8103 40.8347 58.6058 41.2658 58.4514 41.7175Z" fill="#72564F"/>
<path d="M105.734 32.6543C104.297 28.8421 101.659 26.0432 97.9576 24.7345C95.8695 23.9975 94.8603 24.1655 93.2213 24.0869C91.5823 24.0084 89.9562 24.404 88.645 25.4417C87.0964 26.6799 85.6484 28.1647 84.856 30.0478C84.0429 31.9715 83.2273 33.9088 82.7627 35.9572C82.2981 38.0055 82.2052 40.1921 82.835 42.189L87.4139 44.6925C90.0621 45.6842 92.749 46.684 95.552 46.9143C98.3551 47.1446 101.336 46.5214 103.461 44.5869C106.403 41.9018 107.177 36.4666 105.734 32.6543Z" fill="#3B3C3F"/>
<path d="M101.432 31.1804L95.787 26.3223L94.037 25.9619C90.235 24.7074 86.2782 28.2297 85.2742 31.4513C84.1592 35.0278 82.928 39.4443 82.6699 42.2703C82.1536 47.9602 86.3376 49.8433 86.3376 49.8433C86.3376 49.8433 86.0434 50.6832 85.4678 52.4579L84.8354 52.9619C85.1813 56.0778 89.5433 57.4704 94.1996 55.5928L94.3958 55.4221L102.588 33.5728C102.716 33.0945 102.668 32.5832 102.454 32.1402C102.24 31.6972 101.875 31.3547 101.432 31.1804Z" fill="#B48677"/>
<path d="M85.4187 36.1467C85.3723 36.3288 85.3954 36.5227 85.4831 36.6872C85.5709 36.8516 85.7163 36.9737 85.8884 37.0273C85.9716 37.0576 86.0597 37.0702 86.1476 37.0642C86.2354 37.0582 86.3212 37.0338 86.3999 36.9924C86.4786 36.9509 86.5486 36.8933 86.6057 36.823C86.6628 36.7527 86.7059 36.671 86.7325 36.5829C86.779 36.4012 86.7562 36.2076 86.669 36.0431C86.5818 35.8787 86.437 35.7565 86.2653 35.7023C86.182 35.6719 86.0937 35.6593 86.0057 35.6653C85.9176 35.6712 85.8316 35.6956 85.7527 35.737C85.6738 35.7785 85.6036 35.836 85.5462 35.9064C85.4889 35.9767 85.4455 36.0584 85.4187 36.1467Z" fill="#3B3C3F"/>
<path d="M85.8884 33.6322C85.9478 33.746 86.5492 33.4886 87.2667 33.6864C87.9843 33.8842 88.4179 34.4044 88.5186 34.334C88.5676 34.3015 88.5186 34.1145 88.3379 33.8761C88.0829 33.5664 87.7431 33.3469 87.3648 33.2475C86.9914 33.1448 86.5967 33.1685 86.2369 33.3152C85.9736 33.4372 85.8575 33.578 85.8884 33.6322Z" fill="#3B3C3F"/>
<path d="M88.6581 40.9534C88.6736 40.9127 88.2451 40.7095 87.5482 40.4115C87.3701 40.341 87.2049 40.2543 87.2075 40.1161C87.2372 39.9116 87.3275 39.722 87.4656 39.5743C87.7521 39.1543 88.0515 38.7153 88.369 38.2547C89.6363 36.3744 90.6042 34.8083 90.532 34.7568C90.4597 34.7053 89.373 36.1847 88.1057 38.0651C87.796 38.5311 87.5017 38.9728 87.223 39.3981C87.0495 39.5981 86.9497 39.8566 86.9417 40.127C86.9511 40.2019 86.9767 40.2735 87.0165 40.3364C87.0563 40.3994 87.1093 40.4519 87.1714 40.4901C87.2661 40.5473 87.3676 40.5911 87.4734 40.6201C88.1961 40.8694 88.6452 40.9967 88.6581 40.9534Z" fill="#3B3C3F"/>
<path d="M86.3299 49.835C88.7693 50.5392 91.347 50.5195 93.7764 49.7781C93.7764 49.7781 90.9862 53.0565 85.9092 51.1328L86.3299 49.835Z" fill="#72564F"/>
<path d="M86.9158 31.118C86.9907 31.3347 87.5714 31.3618 88.2064 31.5921C88.8413 31.8224 89.3214 32.134 89.4969 32.0175C89.5795 31.9552 89.5537 31.7466 89.3782 31.5108C89.1308 31.1962 88.8017 30.9637 88.4309 30.8416C88.0666 30.7067 87.6727 30.6869 87.2978 30.7847C87.0165 30.8714 86.8848 31.015 86.9158 31.118Z" fill="#3B3C3F"/>
<path d="M93.0562 38.3766C93.0074 38.5579 92.8926 38.7118 92.7366 38.8051C92.5806 38.8984 92.396 38.9235 92.2225 38.8752C92.1363 38.8564 92.0547 38.8195 91.9824 38.7669C91.91 38.7142 91.8486 38.6468 91.8016 38.5687C91.7546 38.4906 91.7231 38.4033 91.709 38.3121C91.6948 38.2209 91.6983 38.1277 91.7192 38.0379C91.7692 37.8568 91.8846 37.7034 92.0408 37.6102C92.197 37.5171 92.3817 37.4917 92.5555 37.5394C92.6414 37.5585 92.7228 37.5956 92.7948 37.6484C92.8668 37.7012 92.928 37.7686 92.9747 37.8467C93.0214 37.9248 93.0527 38.012 93.0667 38.103C93.0807 38.194 93.0771 38.2871 93.0562 38.3766Z" fill="#3B3C3F"/>
<path d="M95.5212 36.5367C95.4128 36.6018 95.023 36.0545 94.3132 35.835C93.6034 35.6155 92.9762 35.835 92.9246 35.7076C92.8988 35.6534 93.0279 35.518 93.304 35.415C93.676 35.2909 94.0755 35.2909 94.4475 35.415C94.8166 35.5313 95.1416 35.7664 95.3767 36.087C95.5444 36.3227 95.5625 36.5096 95.5212 36.5367Z" fill="#3B3C3F"/>
<path d="M95.8204 34.0225C95.632 34.1471 95.1339 33.8003 94.4783 33.5835C93.8227 33.3668 93.229 33.3126 93.1516 33.0985C93.1206 32.9956 93.2548 32.852 93.5465 32.768C93.9356 32.6811 94.3397 32.7043 94.7175 32.8353C95.0953 32.9662 95.4332 33.2001 95.6965 33.5131C95.8746 33.7597 95.9004 33.9602 95.8204 34.0225Z" fill="#3B3C3F"/>
<path d="M98.9746 42.2946C99.0753 41.8882 99.7489 41.051 100.157 41.0916C101.22 41.2027 103.04 41.7907 102.384 44.5164C101.489 48.2447 97.3021 46.4131 97.3201 46.3047C97.3382 46.1963 98.6236 43.6954 98.9746 42.2946Z" fill="#B48677"/>
<path d="M99.4341 45.3211C99.4521 45.3211 99.4857 45.3834 99.5786 45.462C99.71 45.5661 99.8744 45.6136 100.038 45.5947C100.448 45.5487 100.913 45.0068 101.094 44.3402C101.18 44.0231 101.196 43.6897 101.143 43.3648C101.137 43.2393 101.103 43.1171 101.043 43.0086C100.983 42.9001 100.898 42.8085 100.797 42.7416C100.73 42.7037 100.653 42.6911 100.579 42.7059C100.505 42.7207 100.438 42.762 100.389 42.8229C100.317 42.915 100.322 42.9963 100.301 42.9963C100.281 42.9963 100.239 42.915 100.301 42.7687C100.342 42.6808 100.41 42.6107 100.495 42.5709C100.613 42.5218 100.744 42.5218 100.861 42.5709C101.002 42.6389 101.123 42.7436 101.213 42.8751C101.304 43.0066 101.36 43.1603 101.378 43.3215C101.451 43.6802 101.439 44.0523 101.344 44.4053C101.14 45.1504 100.606 45.76 100.054 45.7763C99.9514 45.7803 99.8497 45.7602 99.7559 45.7176C99.6621 45.6749 99.5786 45.6107 99.5115 45.5297C99.4186 45.4132 99.4341 45.3238 99.4341 45.3211Z" fill="#72564F"/>
<path d="M100.296 41.151L99.1192 41.8176C96.4632 36.6994 91.9102 24.588 92.1502 25.2897C92.1502 25.2897 95.1108 25.0351 97.7977 26.4928C100.485 27.9505 105.422 31.2452 104.271 34.7377C103.12 38.2302 100.296 41.151 100.296 41.151Z" fill="#3B3C3F"/>
<path d="M105.435 41.5495C105.443 41.4757 105.443 41.4011 105.435 41.3273C105.429 41.1136 105.408 40.9008 105.371 40.6906C105.214 39.9148 104.898 39.1843 104.444 38.5501C103.771 37.6095 102.949 36.7967 102.015 36.1468C100.983 35.38 99.7877 34.6485 98.6933 33.6622C97.6545 32.7491 96.7191 31.7136 95.9057 30.5761C95.2454 29.6471 94.6657 28.6578 94.1738 27.6201C93.8466 26.92 93.5579 26.2008 93.3091 25.466L93.113 24.8645C93.0943 24.7919 93.0675 24.7218 93.033 24.6559C93.0406 24.7304 93.0553 24.8039 93.0768 24.8754C93.113 25.0162 93.162 25.2249 93.2394 25.4904C93.4649 26.2378 93.7383 26.9683 94.0577 27.677C94.5366 28.7321 95.1095 29.7373 95.7689 30.6791C96.5835 31.8345 97.5252 32.885 98.5746 33.8085C99.6844 34.8056 100.898 35.5344 101.93 36.2904C102.858 36.9215 103.682 37.7088 104.367 38.6206C104.82 39.2361 105.147 39.9438 105.327 40.6987C105.425 41.2406 105.414 41.5495 105.435 41.5495Z" fill="#FB923C"/>
<path d="M104.416 42.2726C104.507 42.0017 104.543 41.7137 104.521 41.4273C104.477 40.6394 104.207 39.8841 103.747 39.2597C103.195 38.4468 102.263 37.7478 101.205 37.0921C100.04 36.4174 98.9513 35.6086 97.9577 34.6806C96.9763 33.7425 96.1094 32.6804 95.3766 31.5187C94.7768 30.5677 94.2685 29.5566 93.8589 28.5003C93.5857 27.7871 93.3546 27.0569 93.1671 26.3138L93.0278 25.7041C93.017 25.6309 92.9962 25.5597 92.9658 25.4928C92.9669 25.5658 92.9755 25.6385 92.9916 25.7096C93.0174 25.8748 93.0536 26.078 93.0975 26.3327C93.2572 27.088 93.4703 27.8297 93.735 28.5518C94.6203 30.949 96.0244 33.0972 97.8363 34.827C98.8398 35.7628 99.9422 36.5747 101.122 37.2465C102.18 37.8914 103.097 38.566 103.646 39.3437C104.106 39.9392 104.391 40.6621 104.467 41.4245C104.474 41.7083 104.457 41.9921 104.416 42.2726Z" fill="#FB923C"/>
<path d="M90.7203 42.0588C90.8288 42.0171 90.9468 42.0114 91.0585 42.0425C91.1546 42.0902 91.2328 42.1703 91.2804 42.2701C91.4065 42.4976 91.4648 42.7596 91.4477 43.0223C91.4305 43.2849 91.3388 43.5361 91.1843 43.7435C91.0299 43.9508 90.8197 44.1048 90.581 44.1856C90.3424 44.2664 90.0861 44.2702 89.8454 44.1965C89.3679 44.0502 88.8774 43.5923 88.8413 42.5952C89.4272 42.4408 90.1422 42.2105 90.7203 42.0588Z" fill="#72564F"/>
<path d="M89.8014 44.2317C90.0638 44.2562 90.3281 44.2201 90.5758 44.1261C90.8357 44.0156 91.0491 43.8108 91.1772 43.549C91.2526 43.3897 91.2958 43.2158 91.3043 43.0382C91.3127 42.8605 91.2861 42.683 91.2262 42.5166C91.1591 42.3459 91.0636 42.1698 90.9345 42.1536C90.772 42.1582 90.6111 42.1883 90.457 42.243L89.5975 42.4679C89.3356 42.5529 89.0655 42.6074 88.7922 42.6304C89.0389 42.5023 89.2987 42.4041 89.5666 42.3378L90.4183 42.0669C90.5929 41.9961 90.7784 41.9603 90.9655 41.9612C91.0796 41.9845 91.1805 42.0535 91.2469 42.1536C91.3084 42.2417 91.3579 42.3383 91.394 42.4408C91.4631 42.6311 91.4927 42.8347 91.4806 43.038C91.4686 43.2413 91.4153 43.4395 91.3243 43.6194C91.1738 43.9129 90.9229 44.1356 90.6222 44.2426C90.1112 44.4295 89.786 44.2426 89.8014 44.2317Z" fill="#3B3C3F"/>
<path d="M106.421 36.6696C106.44 36.8031 106.449 36.9382 106.447 37.0733C106.456 37.2321 106.456 37.3913 106.447 37.5501C106.447 37.7371 106.431 37.9484 106.4 38.1814C106.4 38.298 106.375 38.4199 106.362 38.5445C106.349 38.6692 106.318 38.8155 106.295 38.9374C106.256 39.2083 106.178 39.4955 106.111 39.7963C105.942 40.4461 105.723 41.0804 105.456 41.6929C105.181 42.301 104.856 42.8823 104.483 43.4297C104.294 43.6709 104.134 43.9147 103.951 44.1098L103.693 44.4051L103.435 44.6571C103.289 44.8015 103.134 44.9363 102.973 45.0608C102.903 45.1177 102.836 45.1692 102.777 45.2207L102.598 45.3345C102.493 45.4125 102.38 45.4805 102.263 45.5377C102.245 45.5079 102.73 45.2261 103.368 44.584L103.626 44.3293L103.884 44.0339C104.065 43.8361 104.219 43.5923 104.4 43.3538C104.762 42.8084 105.08 42.233 105.353 41.6333C105.617 41.0285 105.837 40.4035 106.011 39.7638C106.08 39.4685 106.16 39.1867 106.204 38.9184C106.228 38.7857 106.253 38.6475 106.277 38.531C106.3 38.4145 106.31 38.2871 106.326 38.1706C106.362 37.9403 106.375 37.7317 106.39 37.5474C106.407 37.3909 106.417 37.2335 106.419 37.076C106.407 36.9407 106.408 36.8047 106.421 36.6696Z" fill="#FB923C"/>
<path d="M52.644 58.2834L51.3896 62.055C50.8265 62.9843 50.596 64.0933 50.7392 65.1844C50.9973 66.9348 51.067 69.6876 54.2959 70.3162C57.5249 70.9448 72.2268 69.6171 72.2268 69.6171C72.2268 69.6171 81.0025 52.5474 80.9354 52.756C79.2454 52.7979 77.5753 53.1491 76.0003 53.7938C75.0218 54.2397 74.0894 54.7899 73.2179 55.4357C71.0572 56.9692 68.6264 58.0341 66.0683 58.5679C63.1801 59.1775 59.9537 59.863 60.0647 59.863L60.3899 56.7661L52.644 58.2834Z" fill="#2E3081"/>
<path d="M96.964 87.3993L102.611 57.343L95.9625 54.7988L95.5057 52.3034L86.73 55.6035L85.7543 51.5664L83.8108 52.7261L80.8993 52.7559C80.8993 52.7559 72.423 65.0596 71.6744 72.3942C71.2899 76.1685 72.9392 85.1287 72.9392 85.1287L72.614 92.5039L71.4912 95.6551C71.1221 96.6955 71.3415 97.4162 72.2165 98.0394L99.5761 97.9717C100.03 97.326 100.303 96.56 100.365 95.76C100.426 94.9601 100.274 94.158 99.9245 93.4441L96.964 87.3993Z" fill="#2E3081"/>
<path opacity="0.3" d="M83.2016 53.3032C83.2016 53.3032 81.6762 56.8662 83.2016 59.1151L86.2706 57.0233L86.9571 60.8573C86.9571 60.8573 93.7041 59.4483 95.6916 55.1999C95.6916 55.1999 90.9578 59.806 87.032 59.8629L86.5881 56.1698L83.5424 58.0665C83.5424 58.0665 83.2275 54.9696 83.2016 53.3032Z" fill="#27272A"/>
<g opacity="0.3">
<path d="M99.8264 93.2438L83.1551 97.3947C82.8978 97.4588 82.6311 97.4691 82.37 97.4249C82.109 97.3807 81.8588 97.283 81.6337 97.1373C81.4087 96.9916 81.2132 96.8009 81.0584 96.5758C80.9035 96.3508 80.7925 96.096 80.7315 95.826L74.795 69.563C74.734 69.2927 74.7243 69.0125 74.7665 68.7383C74.8088 68.4642 74.9021 68.2014 75.0411 67.9651C75.1802 67.7289 75.3622 67.5237 75.5768 67.3613C75.7915 67.1989 76.0345 67.0825 76.292 67.0188L93.7299 62.6836C94.2498 62.5541 94.7973 62.6467 95.2523 62.9408C95.7072 63.235 96.0323 63.7067 96.1561 64.2524L98.2416 90.0195C98.603 90.7267 99.8264 93.2438 99.8264 93.2438Z" fill="#27272A"/>
</g>
<path d="M94.4549 60.9491L77.1844 65.2515C76.0554 65.5327 75.3573 66.7215 75.6253 67.9067L81.5218 93.9899C81.7897 95.175 82.9222 95.9078 84.0512 95.6265L101.322 91.3242C102.451 91.0429 103.149 89.8542 102.881 88.669L96.9843 62.5858C96.7163 61.4006 95.5839 60.6679 94.4549 60.9491Z" fill="#DADADD"/>
<path d="M101.316 91.3363L101.378 91.3146C101.419 91.2983 101.483 91.2848 101.561 91.2496C101.869 91.1261 102.145 90.9281 102.367 90.6715C102.588 90.4149 102.749 90.107 102.836 89.7729C102.905 89.5085 102.926 89.2325 102.895 88.9601C102.862 88.6729 102.777 88.3694 102.707 88.047L100.208 77.1386L98.4946 69.5981L97.5525 65.4093C97.3899 64.6885 97.2221 63.9543 97.0543 63.2119C96.9923 62.839 96.8883 62.4752 96.7446 62.1281C96.5769 61.7885 96.3252 61.5027 96.0159 61.3005C95.7066 61.0984 95.3511 60.9874 94.9869 60.9792C94.613 60.9981 94.2428 61.0654 93.8847 61.1798L91.6289 61.7433L86.9829 62.903L77.2031 65.3415C76.7977 65.4433 76.4318 65.6733 76.1549 66.0004C75.8779 66.3274 75.7033 66.7358 75.6545 67.1704C75.6319 67.6072 75.6871 68.0446 75.8171 68.4601C75.9152 68.8909 76.0132 69.3217 76.1087 69.7498L77.2367 74.8003C77.9852 78.1167 78.7079 81.3031 79.3945 84.3675L81.3664 93.0243C81.4413 93.363 81.5187 93.6989 81.5936 94.0295C81.7101 94.5056 81.9787 94.9254 82.3545 95.2188C82.7302 95.5122 83.1905 95.6614 83.6584 95.6416C83.9578 95.6085 84.254 95.5487 84.5438 95.4628L85.4162 95.2461L87.1016 94.8288L97.5086 92.2602L100.348 91.5693L101.086 91.3932C101.251 91.3525 101.344 91.3363 101.344 91.3363C101.344 91.3363 101.262 91.3634 101.086 91.4067L100.353 91.5964L97.5267 92.3144L87.13 94.9263L85.4446 95.349L84.5722 95.5658C84.2758 95.6547 83.9727 95.7163 83.6662 95.75C83.3435 95.7635 83.022 95.7009 82.7254 95.5668C82.4289 95.4327 82.1647 95.2305 81.9523 94.9751C81.7352 94.7102 81.5781 94.3971 81.4929 94.0593C81.4155 93.726 81.3406 93.3901 81.2632 93.0514C80.6463 90.3419 79.9907 87.4455 79.299 84.3973C78.6072 81.3491 77.8845 78.1492 77.1334 74.8328C76.76 73.1728 76.3789 71.4857 75.99 69.7715C75.8919 69.3434 75.7964 68.9126 75.6983 68.4818C75.6519 68.265 75.5977 68.0537 75.5564 67.8288C75.5132 67.6032 75.5045 67.3718 75.5306 67.1433C75.5823 66.6806 75.7678 66.2456 76.0623 65.897C76.2122 65.7233 76.3862 65.5744 76.5785 65.4553C76.7695 65.3339 76.9765 65.2426 77.1928 65.1844L86.9752 62.7458L91.6211 61.5889L93.877 61.028L94.4319 60.8898C94.621 60.8412 94.8155 60.8193 95.0101 60.8248C95.3962 60.8346 95.7727 60.9529 96.1004 61.1674C96.4282 61.3818 96.6952 61.6845 96.8736 62.0441C96.959 62.2205 97.0239 62.407 97.0672 62.5995C97.1085 62.7865 97.1524 62.9734 97.1937 63.1604L97.6893 65.3578L98.634 69.5575C99.2457 72.2669 99.8135 74.7949 100.33 77.1007C101.362 81.7068 102.198 85.4432 102.779 88.028C102.846 88.3504 102.929 88.6512 102.962 88.9465C102.988 89.2195 102.966 89.4951 102.895 89.7594C102.782 90.1801 102.554 90.5568 102.24 90.8431C102.048 91.0173 101.826 91.1524 101.587 91.2414C101.499 91.2799 101.408 91.3116 101.316 91.3363Z" fill="#3B3C3F"/>
<path d="M91.3717 78.1977C91.5626 76.9659 90.7661 75.8049 89.5926 75.6045C88.4192 75.4041 87.3132 76.2402 87.1223 77.472C86.9314 78.7038 87.7279 79.8648 88.9013 80.0652C90.0748 80.2656 91.1808 79.4295 91.3717 78.1977Z" fill="white"/>
<path opacity="0.3" d="M79.0433 84.7414C78.9943 84.7224 79.5311 86.0311 81.2631 86.5134C82.995 86.9957 86.815 86.993 87.53 87.2612C88.2449 87.5295 102.606 90.4313 102.606 90.4313C102.606 90.4313 102.949 90.2444 103.022 88.7352C103.094 87.226 79.0433 84.7414 79.0433 84.7414Z" fill="#27272A"/>
<path d="M83.3719 70.6735C83.3591 70.6107 83.3325 70.5519 83.2941 70.5019C83.2557 70.4519 83.2066 70.4121 83.1508 70.3857C83.095 70.3593 83.034 70.3471 82.9729 70.35C82.9118 70.353 82.8522 70.371 82.7989 70.4026C82.262 70.7277 81.5083 71.5108 81.6426 73.1121C81.7003 74.0791 81.965 75.02 82.4169 75.8649L78.029 76.377C78.029 76.377 76.4804 76.8322 76.7075 77.8157C76.9346 78.7993 77.1437 78.7288 77.1437 78.7288C77.0006 78.7412 76.8616 78.7848 76.7355 78.8568C76.6094 78.9288 76.4989 79.0276 76.4112 79.147C76.3236 79.2663 76.2605 79.4035 76.2262 79.5499C76.1919 79.6962 76.187 79.8484 76.2119 79.9969C76.2636 80.6796 77.0301 81.1728 77.0301 81.1728C77.0301 81.1728 76.7875 82.3487 76.9579 82.6034C77.1282 82.8581 78.1736 83.3349 78.1736 83.3349C78.1736 83.3349 77.9645 84.0936 78.4162 84.454C78.8679 84.8143 81.2244 85.4131 81.2244 85.4131C81.2244 85.4131 86.2756 85.6841 87.3494 85.6841L92.4419 86.9114V80.6038C92.4419 80.6038 88.2656 79.7909 88.0359 79.52C87.5481 78.932 84.8457 74.9139 84.8457 74.9139C84.8457 74.9139 83.8003 73.5591 83.5835 72.5349C83.4824 71.9187 83.4117 71.2974 83.3719 70.6735Z" fill="#B48677"/>
<path d="M79.7144 78.6503C78.8443 78.7099 77.9711 78.7009 77.1023 78.6232C77.5363 78.5784 77.9727 78.5658 78.4083 78.5853C78.8446 78.5739 79.2811 78.5956 79.7144 78.6503Z" fill="#72564F"/>
<path d="M80.1791 81.395C80.0253 81.4188 79.8694 81.4242 79.7145 81.4113C79.428 81.4113 79.0305 81.3869 78.5917 81.3489C78.1529 81.311 77.758 81.2622 77.4741 81.2189C77.3181 81.2052 77.164 81.1734 77.0146 81.124C77.1698 81.1139 77.3255 81.1212 77.4792 81.1457L78.5969 81.246L79.7145 81.3381C79.8708 81.3402 80.0265 81.3593 80.1791 81.395Z" fill="#72564F"/>
<path d="M79.8978 83.6465C79.6076 83.6352 79.3194 83.5907 79.0383 83.5138C78.7516 83.4674 78.4705 83.3893 78.1995 83.2808C78.4891 83.2888 78.7768 83.3334 79.0564 83.4135C79.3442 83.4581 79.6265 83.5363 79.8978 83.6465Z" fill="#72564F"/>
<path d="M102.446 57.2808C102.446 57.2808 103.234 57.3024 104.656 59.5432C106.078 61.7839 110.533 81.0212 110.791 83.075C111.142 85.6626 110.017 89.6455 107.479 89.9761C104.114 90.4177 88.0334 86.5431 88.0334 86.5431L90.1293 79.4985L100.936 80.1244C100.936 80.1244 99.4858 73.0039 98.9102 71.1831C97.9655 68.1539 98.5721 58.5054 102.446 57.2808Z" fill="#2E3081"/>
<path d="M75.915 60.1069C75.9067 60.1489 75.8919 60.1892 75.8711 60.2262L75.7214 60.5621C75.5795 60.871 75.3885 61.2856 75.1588 61.7895C74.6916 62.8273 74.0669 64.2741 73.4578 65.9052C72.8487 67.5363 72.366 69.0428 72.0666 70.1456C71.9195 70.6875 71.8085 71.1508 71.7388 71.4624C71.7078 71.606 71.6794 71.7333 71.6562 71.8227C71.6499 71.865 71.6378 71.9061 71.6201 71.9447C71.6126 71.9026 71.6126 71.8594 71.6201 71.8173C71.6356 71.7171 71.6536 71.5951 71.6769 71.4515C71.7336 71.1345 71.8291 70.6766 71.9659 70.1212C72.3382 68.6723 72.7907 67.2474 73.321 65.8537C73.9327 64.2281 74.5728 62.7758 75.0633 61.7462C75.3214 61.2314 75.5149 60.8168 75.6647 60.5377C75.7318 60.4077 75.7911 60.302 75.8376 60.2153C75.8593 60.1761 75.8853 60.1398 75.915 60.1069Z" fill="#3B3C3F"/>
<path d="M95.8722 54.9695C95.8353 55.0306 95.7939 55.0886 95.7483 55.1429C95.6631 55.2485 95.547 55.4138 95.3689 55.6143C94.88 56.1786 94.3397 56.6913 93.7557 57.1452C92.8783 57.8301 91.9249 58.4006 90.9165 58.844C89.6772 59.4024 88.3667 59.7675 87.0268 59.9278H86.9622V59.8601L86.8564 58.9876C86.7403 58.0149 86.6293 57.0693 86.5209 56.1671L86.619 56.2185L83.5681 58.0989L83.5036 58.1396L83.4855 58.061C83.2168 56.8589 83.1151 55.6223 83.1835 54.3896C83.2093 53.948 83.2506 53.6012 83.2842 53.3682C83.3022 53.2517 83.3177 53.1622 83.3281 53.0972C83.3312 53.0666 83.3381 53.0365 83.3487 53.0078C83.3527 53.0384 83.3527 53.0694 83.3487 53.0999C83.3487 53.1704 83.3306 53.2571 83.3203 53.3709C83.2971 53.6039 83.2661 53.948 83.2506 54.3896C83.2044 55.6145 83.3208 56.8401 83.5965 58.0312L83.5139 57.996L86.5544 56.0993L86.6422 56.0478V56.1508C86.7506 57.0504 86.8667 57.996 86.9829 58.9714C87.019 59.2694 87.0552 59.5648 87.0861 59.8411L87.0139 59.7815C89.4209 59.4874 91.7171 58.555 93.686 57.072C94.2727 56.6275 94.8204 56.1288 95.3224 55.5818C95.5057 55.3949 95.6244 55.2269 95.7199 55.1266C95.7672 55.0707 95.8181 55.0182 95.8722 54.9695Z" fill="#3B3C3F"/>
<path d="M58.4307 65.5663C58.4253 65.4847 58.4296 65.4028 58.4437 65.3224C58.4591 65.1653 58.4901 64.9377 58.5366 64.6613C58.6608 63.936 58.8271 63.2194 59.0347 62.5154C59.2411 61.8115 59.4894 61.122 59.7781 60.4508C59.8891 60.1961 59.9846 59.9902 60.0543 59.8493C60.0856 59.7737 60.1274 59.7034 60.1781 59.6406C60.0895 59.9302 59.9853 60.2143 59.8658 60.4914C59.6645 61.0116 59.4064 61.7405 59.1638 62.5587C58.9212 63.377 58.7456 64.1302 58.6321 64.6803C58.5831 64.9798 58.5159 65.2758 58.4307 65.5663Z" fill="#3B3C3F"/>
<path d="M45.0503 69.6199H33.8845V89.5915H45.0503V69.6199Z" fill="white"/>
<path d="M45.0504 89.5913C45.0504 89.5913 45.0504 89.5561 45.0504 89.491C45.0504 89.426 45.0504 89.3285 45.0504 89.2065C45.0504 88.9491 45.0504 88.5807 45.0504 88.1038C45.0504 87.1392 45.0504 85.7384 45.0324 83.9745C45.0324 80.4522 45.0143 75.4641 45.004 69.6143L45.0659 69.6793H33.9001L33.9672 69.6089C33.9672 77.2225 33.9543 84.2075 33.9517 89.5804L33.9001 89.5263L42.0357 89.5534L44.2735 89.5669H44.862C44.9937 89.5669 45.0659 89.5669 45.0659 89.5669H44.8724H44.2942H42.0667L33.9001 89.5967H33.8485V89.5425C33.8485 84.1696 33.8485 77.1846 33.833 69.5709V69.5005H33.8743H45.0401H45.1021V69.5655C45.1021 75.4261 45.0788 80.4251 45.0711 83.9637C45.0711 85.7222 45.0711 87.1175 45.0556 88.0767C45.0556 88.5481 45.0556 88.9139 45.0556 89.1605V89.4314C45.053 89.5615 45.0504 89.5913 45.0504 89.5913Z" fill="#3B3C3F"/>
<path d="M43.3082 70.5952H18.7129C18.3138 70.5952 17.9902 70.9349 17.9902 71.3539V91.6641C17.9902 92.0831 18.3138 92.4228 18.7129 92.4228H43.3082C43.7073 92.4228 44.0309 92.0831 44.0309 91.6641V71.3539C44.0309 70.9349 43.7073 70.5952 43.3082 70.5952Z" fill="#FB923C"/>
<path d="M14.2064 42.6495L13.9483 19.9956C13.7082 14.3653 16.63 9.52342 22.0013 9.42859L22.4969 9.45027C24.9079 9.55454 27.1931 10.608 28.8977 12.4009C30.6023 14.1938 31.6013 16.5947 31.6959 19.1258C31.8791 24.0029 32.0211 29.4056 31.8869 32.0148C31.6055 37.4202 26.4227 38.0434 26.4227 38.0434C26.4227 38.0434 26.3917 41.3327 26.1801 43.0153L27.3906 46.7137L19.477 48.7079L14.2064 42.6495Z" fill="#FEC4A1"/>
<path d="M26.4226 38.0434C26.4226 38.0434 23.1679 38.103 19.7996 35.6726C19.7996 35.6726 21.2527 39.8073 26.4097 39.5417L26.4226 38.0434Z" fill="#BE7453"/>
<path d="M25.3258 27.8287C25.3258 27.7827 25.8188 27.7149 26.6163 27.6418C26.8177 27.6282 27.0113 27.5957 27.05 27.4521C27.0759 27.2341 27.0381 27.013 26.9416 26.8181L26.4073 25.1761C25.6665 22.8406 25.1425 20.9222 25.2303 20.8924C25.3181 20.8626 26.0046 22.7295 26.7325 25.0678C26.9106 25.6422 27.0784 26.1922 27.2487 26.7151C27.3659 26.9766 27.3915 27.273 27.321 27.5523C27.288 27.6256 27.2398 27.6901 27.18 27.7412C27.1201 27.7923 27.0501 27.8287 26.9751 27.8477C26.8629 27.8768 26.7473 27.8886 26.6318 27.8829C25.8239 27.8937 25.3258 27.8775 25.3258 27.8287Z" fill="#3B3C3F"/>
<path d="M14.2063 24.0221C14.1186 23.9788 10.7115 22.7704 10.678 26.4607C10.6444 30.151 14.1908 29.4411 14.1986 29.3273C14.2063 29.2135 14.2063 24.0221 14.2063 24.0221Z" fill="#FEC4A1"/>
<path d="M13.1325 27.9235C13.117 27.9235 13.0705 27.9696 12.9673 28.0183C12.8199 28.0807 12.6552 28.0807 12.5079 28.0183C12.1362 27.872 11.829 27.2461 11.8187 26.5796C11.8112 26.2624 11.8721 25.9474 11.9968 25.6584C12.0312 25.5431 12.0916 25.4383 12.173 25.3529C12.2543 25.2675 12.3542 25.204 12.464 25.168C12.5349 25.1495 12.6098 25.1575 12.6757 25.1906C12.7416 25.2238 12.7945 25.2799 12.8253 25.3495C12.8718 25.4525 12.8486 25.5256 12.8666 25.5337C12.8847 25.5419 12.9441 25.4714 12.9157 25.3197C12.8982 25.2273 12.8496 25.1446 12.7789 25.0867C12.6829 25.0085 12.5613 24.9734 12.4408 24.9891C12.2958 25.0179 12.1602 25.085 12.0469 25.1841C11.9335 25.2832 11.8461 25.411 11.7929 25.5554C11.6407 25.8747 11.5645 26.228 11.5709 26.585C11.589 27.3301 11.9452 28.0319 12.4537 28.1917C12.548 28.2218 12.6476 28.2291 12.745 28.2132C12.8424 28.1972 12.9352 28.1584 13.0163 28.0996C13.1247 28.0183 13.1454 27.9316 13.1325 27.9235Z" fill="#BE7453"/>
<path d="M33.8045 17.4705C31.5925 17.8281 29.3263 17.6574 27.5608 16.216C27.0489 15.7952 26.5754 15.3254 26.1464 14.8125C25.3721 13.8804 24.7526 12.718 23.6969 12.1545C22.3367 11.4283 20.7003 11.9242 19.2549 12.4254L19.3168 12.3685C18.5604 12.7255 17.8761 13.2314 17.301 13.8587C17.65 17.4444 17.1168 21.064 15.7523 24.3715C15.6423 24.6439 15.4346 24.8599 15.1742 24.973C14.3482 25.3171 14.6037 24.1602 13.9894 23.9434C13.5197 23.7727 13.2926 23.8784 12.3556 23.8486C12.0304 22.9192 11.8394 20.3859 11.5658 19.0176C10.7915 18.1587 10.0791 16.579 10.0507 15.3246C10.0223 14.0701 10.6805 12.4986 10.6805 12.4986C11.5735 10.7184 12.0923 9.80806 13.4629 9.31493L13.4939 9.32848C14.7251 8.82452 16.235 8.83535 17.2313 9.74032C17.4894 7.81388 19.131 6.3047 20.93 5.83325C22.729 5.3618 25.6044 5.68965 27.3182 6.43747C28.4875 6.94685 29.618 7.91684 30.9318 9.31493C31.1047 9.49918 31.2828 9.69155 31.4635 9.89205L31.5073 9.94353C31.9152 10.1922 32.3714 10.3404 32.8418 10.377C33.6161 10.4692 34.1117 10.2118 34.6485 9.60214C34.8111 9.41518 35.0151 9.18217 35.2422 9.25803C35.3109 9.29156 35.3713 9.34127 35.4188 9.4033C35.4662 9.46533 35.4994 9.53801 35.5158 9.61568C35.7739 10.4285 35.4306 11.3281 34.8524 11.9187C34.5712 12.1996 34.2488 12.4311 33.8974 12.6042C34.2683 13.0409 34.7683 13.3339 35.317 13.4361C35.5571 13.4772 35.7867 13.5692 35.9918 13.7067C36.1968 13.8441 36.373 14.024 36.5095 14.2354C36.6524 14.4472 36.7316 14.6992 36.7366 14.9588C36.7263 16.5276 35.2448 17.2375 33.8045 17.4705Z" fill="#3B3C3F"/>
<path d="M34.7492 15.85L34.7079 15.8879L34.5763 15.9828C34.5069 16.0376 34.4336 16.0865 34.3569 16.1291C34.2555 16.1922 34.1503 16.2483 34.042 16.2971C33.3462 16.6185 32.5852 16.7534 31.8274 16.6899C30.702 16.5971 29.6263 16.1642 28.7301 15.4436C27.6471 14.5545 26.7486 13.4426 26.0896 12.1759C25.7231 11.5148 25.4237 10.8402 25.0933 10.2143C24.7924 9.60648 24.4099 9.04714 23.9577 8.55338C23.5507 8.10659 23.0429 7.77482 22.4813 7.5888C22.23 7.51133 21.9687 7.47567 21.7069 7.48313C21.4623 7.49507 21.2202 7.54062 20.9868 7.61861C20.2759 7.86765 19.6794 8.3866 19.3143 9.07359C19.1926 9.33243 19.0999 9.6052 19.0381 9.88644C19.0381 9.88644 19.0381 9.86747 19.0381 9.82954C19.0381 9.79161 19.0536 9.732 19.0639 9.66426C19.1097 9.45362 19.1781 9.24911 19.2678 9.05463C19.4185 8.75121 19.6165 8.47646 19.8537 8.24178C20.1693 7.92884 20.5451 7.69048 20.9558 7.54274C21.1962 7.45846 21.4462 7.40835 21.6992 7.39372C21.9735 7.3836 22.2476 7.4174 22.5122 7.49397C23.0922 7.6819 23.6177 8.02016 24.0402 8.47751C24.5006 8.97882 24.8908 9.54626 25.1992 10.1628C25.5347 10.7914 25.8315 11.4661 26.198 12.1218C26.8492 13.3736 27.7341 14.4748 28.7998 15.3596C29.6792 16.0717 30.7341 16.5051 31.8403 16.6087C32.585 16.6794 33.335 16.5604 34.0265 16.2618C34.5066 16.0315 34.7389 15.8256 34.7492 15.85Z" fill="#FB923C"/>
<path d="M35.245 13.4766C35.1877 13.5289 35.1244 13.5736 35.0566 13.6094C34.8813 13.7204 34.6974 13.8155 34.5068 13.8939C34.2256 14.0173 33.9345 14.1143 33.637 14.1838C33.2711 14.2664 32.8987 14.3136 32.5245 14.3247C32.151 14.3288 31.7778 14.298 31.4095 14.2325C31.109 14.1751 30.8137 14.0908 30.5268 13.9806C30.3338 13.9054 30.1465 13.8148 29.9667 13.7096C29.8376 13.6365 29.7705 13.5931 29.7757 13.585C29.7808 13.5768 30.0673 13.7205 30.55 13.8857C30.8353 13.9812 31.1269 14.0545 31.4224 14.1052C31.7843 14.1654 32.1504 14.1926 32.5168 14.1865C32.8834 14.1755 33.2486 14.1329 33.6086 14.0591C33.9016 13.99 34.1897 13.8995 34.4707 13.7882C34.9559 13.6256 35.2321 13.4549 35.245 13.4766Z" fill="#FB923C"/>
<path d="M15.5226 16.2919C15.5572 16.4047 15.573 16.5229 15.5691 16.6414C15.5864 16.9638 15.5803 17.2872 15.551 17.6087C15.5383 17.8395 15.5028 18.0683 15.4452 18.2915C15.4212 18.3701 15.374 18.4387 15.3104 18.4874C15.2469 18.5361 15.1703 18.5624 15.0916 18.5624C14.9426 18.5434 14.8043 18.4717 14.6993 18.3592L13.4397 17.1345L13.6255 17.0207C13.6823 17.2917 13.7443 17.5436 13.8062 17.8146C13.974 18.5624 14.1314 19.2723 14.276 19.9199L14.3534 20.2748L14.0953 20.0255C13.5584 19.4909 13.0923 18.883 12.7093 18.2183C12.5447 17.9689 12.4168 17.6948 12.3298 17.4055C12.3815 17.3675 12.9261 18.5922 14.2476 19.8603L14.0772 19.9659C13.9275 19.3184 13.7623 18.6112 13.5894 17.8661C13.5275 17.5951 13.4681 17.3242 13.4087 17.0695L13.3236 16.6847L13.5817 16.9557L14.8206 18.1966C14.8893 18.2765 14.9792 18.3331 15.0787 18.3592C15.1202 18.3591 15.1606 18.3447 15.1937 18.3183C15.2268 18.2919 15.2507 18.2549 15.262 18.2129C15.3207 18.0068 15.3613 17.7955 15.3833 17.5816C15.5097 16.7877 15.4891 16.2946 15.5226 16.2919Z" fill="#FB923C"/>
<path d="M25.1684 29.9557C25.109 29.9557 22.4711 28.8719 22.4711 28.8719C22.4711 28.8719 21.6968 30.4733 22.6312 31.2075C23.5655 31.9418 24.6806 31.4785 24.8586 31.0422C24.9887 30.6891 25.0922 30.3258 25.1684 29.9557Z" fill="#BE7453"/>
<path d="M24.5825 31.3511C24.4609 31.3993 24.3368 31.44 24.2108 31.4731C23.866 31.5232 23.5151 31.5011 23.1784 31.408C23.0057 31.3609 22.8445 31.2761 22.7051 31.1591C22.5658 31.0422 22.4515 30.8957 22.3697 30.7293C22.2879 30.5629 22.2404 30.3803 22.2303 30.1933C22.2202 30.0063 22.2477 29.8192 22.3111 29.6442C22.3678 29.396 22.4545 29.1565 22.5692 28.9316L22.435 28.9831C23.2352 29.2974 23.9398 29.5656 24.4457 29.7471C24.7108 29.8645 24.9879 29.9491 25.2717 29.9991C25.0286 29.8385 24.7688 29.7076 24.4973 29.6089C24.0043 29.3895 23.31 29.0941 22.5125 28.7663L22.4247 28.7311L22.3782 28.8178C22.2529 29.0613 22.1584 29.3209 22.0969 29.59C22.033 29.8107 22.0119 30.0427 22.0349 30.2722C22.058 30.5016 22.1247 30.7239 22.2311 30.9258C22.4468 31.2498 22.7636 31.4846 23.1268 31.5896C23.4886 31.6733 23.8639 31.6687 24.2237 31.576C24.487 31.4975 24.5825 31.3566 24.5825 31.3511Z" fill="#3B3C3F"/>
<path d="M29.7007 24.1438C29.6953 24.3485 29.6141 24.5428 29.4743 24.6855C29.3345 24.8282 29.1472 24.908 28.9522 24.9079C28.857 24.9108 28.7622 24.8937 28.6734 24.8576C28.5846 24.8215 28.5036 24.7672 28.4351 24.6978C28.3665 24.6284 28.3119 24.5453 28.2744 24.4534C28.2369 24.3616 28.2172 24.2628 28.2166 24.1628C28.2213 23.9582 28.3018 23.7636 28.4412 23.6204C28.5805 23.4772 28.7675 23.3967 28.9625 23.396C29.0581 23.3928 29.1534 23.4097 29.2426 23.4458C29.3319 23.4818 29.4134 23.5364 29.4822 23.6061C29.551 23.6758 29.6058 23.7594 29.6434 23.8517C29.6809 23.9441 29.7004 24.0434 29.7007 24.1438Z" fill="#3B3C3F"/>
<path d="M30.1601 21.4614C30.0646 21.5589 29.52 21.0929 28.7199 21.0604C27.9197 21.0279 27.3183 21.4261 27.2358 21.3313C27.1945 21.2853 27.2951 21.101 27.5584 20.9168C27.9126 20.6766 28.3297 20.5591 28.7509 20.5808C29.1681 20.5979 29.5691 20.7556 29.8943 21.0306C30.1317 21.2284 30.2066 21.418 30.1601 21.4614Z" fill="#3B3C3F"/>
<path d="M22.3445 23.7916C22.3398 23.996 22.2591 24.1903 22.1197 24.3331C21.9803 24.4758 21.7933 24.5557 21.5985 24.5557C21.5032 24.5589 21.4081 24.5421 21.319 24.5062C21.2299 24.4703 21.1485 24.416 21.0798 24.3465C21.011 24.2771 20.9561 24.1939 20.9184 24.1018C20.8807 24.0098 20.861 23.9107 20.8604 23.8106C20.8651 23.6059 20.9456 23.4113 21.0849 23.2681C21.2243 23.1249 21.4113 23.0444 21.6063 23.0438C21.7018 23.0409 21.7969 23.058 21.886 23.0943C21.9751 23.1305 22.0565 23.185 22.1252 23.2547C22.194 23.3243 22.2488 23.4077 22.2865 23.4999C22.3241 23.5921 22.3438 23.6913 22.3445 23.7916Z" fill="#3B3C3F"/>
<path d="M22.3213 21.3151C22.2232 21.4126 21.6786 20.9466 20.8784 20.9141C20.0783 20.8816 19.4795 21.2799 19.3969 21.1715C19.3556 21.1227 19.4563 20.9412 19.7195 20.7542C20.0755 20.5193 20.4922 20.4066 20.912 20.4318C21.3281 20.4487 21.728 20.6054 22.0528 20.8789C22.2903 21.0794 22.3677 21.269 22.3213 21.3151Z" fill="#3B3C3F"/>
<path d="M22.6827 18.6679C22.564 18.8792 21.8 18.6191 20.8553 18.5541C19.9106 18.4891 19.1208 18.6137 19.0331 18.3861C18.9943 18.2777 19.1621 18.0881 19.5002 17.9282C19.9466 17.7307 20.432 17.6498 20.9147 17.6925C21.3983 17.726 21.8673 17.8802 22.2827 18.1423C22.595 18.3536 22.7344 18.5677 22.6827 18.6679Z" fill="#3B3C3F"/>
<path d="M30.2944 18.9661C30.1241 19.153 29.4762 18.9336 28.6941 18.9037C27.9121 18.8739 27.2462 18.9932 27.099 18.7872C27.0345 18.687 27.1429 18.4946 27.4372 18.3212C27.842 18.1082 28.2942 18.0146 28.7458 18.0503C29.1972 18.0662 29.6357 18.2125 30.0131 18.4729C30.2841 18.6707 30.3693 18.8739 30.2944 18.9661Z" fill="#3B3C3F"/>
<path d="M17.1177 57.0369C18.8883 58.8116 32.8392 65.9619 39.7797 65.5203C46.7203 65.0786 55.447 45.4322 55.447 45.4322L48.8213 41.4574L47.1384 44.0043L37.4645 54.0294C37.4645 54.0294 27.1633 46.0933 24.9513 44.6573C22.7393 43.2213 19.0639 38.8075 13.8062 43.5545C8.54847 48.3015 13.5016 53.4143 17.1177 57.0369Z" fill="#2E3081"/>
<path d="M50.0423 40.2381C50.0423 40.2381 48.5401 38.9809 48.4369 38.2331C48.3337 37.4853 48.4885 36.7375 48.2588 36.2823C48.0291 35.8271 49.0744 35.5886 49.6087 36.2823C50.143 36.9759 50.5766 37.4853 50.5766 37.4853C50.5766 37.4853 51.1367 33.7977 51.3897 32.7301C51.6426 31.6626 52.053 29.0154 52.164 28.124C52.275 27.2326 52.5202 25.9862 53.0029 25.9862H53.1319C53.1319 25.9862 53.692 26.0404 53.5888 26.5471C53.5888 26.5471 53.8185 24.0625 54.9645 24.1438C54.9645 24.1438 55.6769 24.1438 55.5736 25.3468C55.4704 26.5498 55.2691 28.0969 55.2691 28.0969L56.0434 25.1842C56.0434 25.1842 56.1182 24.2766 56.8822 24.4093C57.6462 24.5421 57.5456 25.2655 57.3985 26.4929C57.2513 27.7203 56.7635 30.5815 56.7635 30.5815C56.7635 30.5815 57.7805 26.8695 58.1883 26.6013C58.5961 26.3331 59.3085 26.306 59.0788 27.6688C58.849 29.0317 58.2657 31.9715 58.2657 31.9715C58.2657 31.9715 58.1108 36.6724 57.9095 37.6885C57.7082 38.7045 54.8122 45.0556 54.8122 45.0556L49.6449 41.9803C49.6449 41.9803 50.5766 40.8776 50.4992 40.799C50.4218 40.7204 50.0423 40.2381 50.0423 40.2381Z" fill="#FEC4A1"/>
<path d="M50.5301 37.4609C50.5264 37.7331 50.5049 38.0047 50.4655 38.2738C50.4677 38.5458 50.4496 38.8176 50.4113 39.0866C50.3169 38.8231 50.2894 38.5383 50.3313 38.2602C50.3291 37.98 50.3977 37.7042 50.5301 37.4609Z" fill="#BE7453"/>
<path d="M52.7937 31.6031C52.7724 31.3368 52.7784 31.0688 52.8118 30.8038C52.8453 30.3107 52.915 29.6306 53.0363 28.8882C53.1576 28.1458 53.2944 27.4793 53.4261 26.9916C53.4815 26.7306 53.5601 26.4757 53.6609 26.2302C53.6321 26.4954 53.5846 26.7581 53.519 27.016C53.4209 27.4956 53.2893 28.1621 53.168 28.9126C53.0466 29.6631 52.9641 30.3243 52.9098 30.8092C52.89 31.0765 52.8512 31.3419 52.7937 31.6031Z" fill="#BE7453"/>
<path d="M54.6726 31.6031C54.6462 31.39 54.6462 31.1741 54.6726 30.961C54.7092 30.4475 54.7721 29.9365 54.8611 29.4301C54.9478 28.9224 55.0589 28.4196 55.194 27.9236C55.2377 27.7146 55.3071 27.5124 55.4005 27.3221C55.3808 27.5348 55.3428 27.7452 55.2869 27.9507C55.2043 28.3328 55.0959 28.8638 54.9927 29.4545C54.8894 30.0452 54.8172 30.5816 54.7656 30.9718C54.7522 31.1847 54.7211 31.3959 54.6726 31.6031Z" fill="#BE7453"/>
<path d="M56.4948 32.2289C56.485 31.4578 56.6448 30.6947 56.962 29.999C56.9114 30.3761 56.8364 30.749 56.7374 31.1153C56.679 31.4915 56.5979 31.8635 56.4948 32.2289Z" fill="#BE7453"/>
<path d="M38.6131 57.9689C38.6 57.9424 38.5904 57.9142 38.5847 57.8849L38.5202 57.6302C38.466 57.3999 38.3885 57.0721 38.293 56.6548C38.1838 56.1383 38.0353 55.6319 37.8491 55.1402C37.7288 54.837 37.5764 54.5489 37.3948 54.2813C37.1868 53.9857 36.936 53.726 36.6515 53.5118C35.4771 52.5581 34.042 51.4662 32.4314 50.2794C30.8208 49.0927 29.0398 47.8084 27.1995 46.4103C26.2806 45.7112 25.3927 45.0339 24.4971 44.3998C23.6015 43.7658 22.7368 43.1941 21.916 42.6414C21.5157 42.3713 21.0923 42.1409 20.6513 41.9532C20.4427 41.8655 20.2224 41.8124 19.9982 41.796L19.6653 41.7581H19.3375C18.5299 41.7397 17.7241 41.8437 16.9448 42.067C15.8167 42.391 14.7382 42.8819 13.7417 43.5247C13.3855 43.7496 13.117 43.9392 12.9364 44.0666L12.7299 44.2129C12.7068 44.2314 12.6817 44.2469 12.655 44.2589C12.6746 44.2377 12.6962 44.2186 12.7196 44.202L12.9209 44.0449C13.0964 43.9067 13.3597 43.7116 13.7133 43.4786C14.706 42.8073 15.7881 42.2941 16.9242 41.9559C17.7107 41.7229 18.5255 41.6124 19.3426 41.628H19.6756L20.0137 41.6633C20.2473 41.6818 20.4769 41.7366 20.6951 41.8258C21.1452 42.0139 21.5773 42.2461 21.9857 42.5195C22.8194 43.0613 23.6944 43.6412 24.5823 44.2752C25.4702 44.9092 26.371 45.5866 27.2924 46.2856C29.1302 47.681 30.906 48.968 32.5166 50.1629C34.1272 51.3578 35.5519 52.4551 36.7237 53.4143C37.013 53.6369 37.2673 53.9057 37.4774 54.2109C37.6598 54.4856 37.8122 54.781 37.9317 55.0914C38.1134 55.5886 38.2558 56.1006 38.3576 56.6223C38.4428 57.0423 38.5099 57.3728 38.5589 57.6058C38.5795 57.7115 38.5976 57.7955 38.6105 57.8605C38.6163 57.8964 38.6171 57.9328 38.6131 57.9689Z" fill="#3B3C3F"/>
<path d="M8.29565 98.0203L9.24034 93.8667L37.0078 94.3923L38.2931 98.0203H8.29565Z" fill="#3B3C3F"/>
<path d="M13.1042 39.1787C12.4331 39.4145 5.29642 46.5106 5.59583 54.7908C5.89524 63.0709 9.68686 88.4533 9.68686 88.4533C9.68686 88.4533 6.41404 89.8596 7.37936 93.0595C8.34469 96.2594 37.3201 95.227 37.3201 95.227C37.3201 95.227 37.5962 95.498 37.7201 93.0405C37.8931 89.6564 32.9141 56.7335 32.9141 56.7335C32.9141 56.7335 28.5727 47.5537 26.7195 43.2429L26.4382 40.8315L13.9276 36.3717L13.1042 39.1787Z" fill="#2E3081"/>
<path opacity="0.3" d="M18.4858 57.9688C18.4858 57.9688 28.1546 66.5497 34.4344 67.116L33.9672 63.9215L18.4858 57.9688Z" fill="#27272A"/>
<path d="M16.0647 56.2649C16.1296 56.2966 16.1911 56.3357 16.248 56.3814L16.7642 56.7336C16.981 56.8908 17.2494 57.0804 17.5695 57.2755C17.8895 57.4706 18.2406 57.7361 18.6484 57.9881C19.0562 58.2401 19.4924 58.53 19.9776 58.801C20.4629 59.0719 20.9843 59.3835 21.5263 59.6924C22.6362 60.2966 23.8699 60.9252 25.194 61.524C26.5181 62.1228 27.8009 62.6322 28.9779 63.0684C30.1549 63.5046 31.2312 63.8542 32.1398 64.1251C32.5915 64.2687 33.0044 64.3798 33.3658 64.4855C33.7271 64.5911 34.042 64.6751 34.2976 64.7401L34.886 64.9027C34.9558 64.9176 35.0241 64.9394 35.09 64.9677C35.0193 64.9618 34.9493 64.9491 34.8809 64.9298L34.2846 64.7943C34.0265 64.7374 33.7116 64.6589 33.3477 64.5613C32.9838 64.4638 32.5734 64.3581 32.1139 64.2199C31.2002 63.9625 30.1239 63.613 28.9366 63.193C27.7493 62.7731 26.4665 62.2528 25.1398 61.6541C23.8131 61.0553 22.5768 60.4185 21.4695 59.8089C20.9197 59.4946 20.3958 59.202 19.9209 58.9012C19.4459 58.6005 18.9813 58.3647 18.5813 58.0938C18.1812 57.8228 17.825 57.5817 17.5127 57.3649C17.2004 57.1482 16.9319 56.9531 16.7203 56.7878L16.2273 56.4112C16.1701 56.3663 16.1158 56.3174 16.0647 56.2649Z" fill="#3B3C3F"/>
<path d="M26.3325 40.8449C26.3521 40.9175 26.365 40.9919 26.3712 41.0671C26.397 41.227 26.4306 41.4383 26.4718 41.7038C26.5988 42.4823 26.766 43.2529 26.9726 44.0123L27.001 44.1207L26.9029 44.0773C25.4988 43.4298 23.6172 42.6088 21.5265 41.8176C19.219 40.9398 17.0973 40.2597 15.5487 39.8045L13.7109 39.2761L13.2076 39.1271C13.148 39.114 13.09 39.094 13.0347 39.0675C13.095 39.071 13.1548 39.0819 13.2128 39.1L13.729 39.2165C14.1678 39.3222 14.8001 39.4875 15.5796 39.6988C17.1283 40.1323 19.2706 40.7962 21.5807 41.6767C23.6791 42.4706 25.5556 43.3024 26.9545 43.9717L26.8848 44.034C26.6858 43.2689 26.5323 42.4916 26.4254 41.7065C26.3893 41.4356 26.366 41.2107 26.3531 41.0617C26.3393 40.9903 26.3324 40.9177 26.3325 40.8449Z" fill="#3B3C3F"/>
<path d="M11.8937 88.2691C11.5074 88.3946 11.1093 88.4755 10.7063 88.5102C10.3093 88.5903 9.90513 88.6248 9.50098 88.6132C9.88644 88.4845 10.2849 88.4036 10.6883 88.372C11.0853 88.2919 11.4895 88.2574 11.8937 88.2691Z" fill="#3B3C3F"/>
</svg>
