<svg width="14" height="16" viewBox="0 0 14 16" fill="none" xmlns="http://www.w3.org/2000/svg">
<path d="M1.84517 12.7978C1.99509 13.9113 2.91738 14.7836 4.03973 14.8352C4.98414 14.8786 5.94349 14.9013 6.99996 14.9013C8.05642 14.9013 9.01578 14.8786 9.96019 14.8352C11.0825 14.7836 12.0048 13.9113 12.1548 12.7978C12.2526 12.0711 12.3333 11.3264 12.3333 10.568C12.3333 9.80954 12.2526 9.06483 12.1548 8.33812C12.0048 7.22463 11.0825 6.35228 9.96019 6.30068C9.01578 6.25727 8.05642 6.23462 6.99996 6.23462C5.94349 6.23462 4.98414 6.25727 4.03973 6.30068C2.91738 6.35228 1.99509 7.22463 1.84517 8.33812C1.74732 9.06483 1.66662 9.80954 1.66662 10.568C1.66662 11.3264 1.74732 12.0711 1.84517 12.7978Z" stroke="#F4F4F5" stroke-width="1.5"/>
<path d="M4 6.23454V4.56787C4 2.91102 5.34315 1.56787 7 1.56787C8.65685 1.56787 10 2.91102 10 4.56787V6.23454" stroke="#F4F4F5" stroke-width="1.5" stroke-linecap="round" stroke-linejoin="round"/>
<path d="M6.99731 10.5679H7.0033" stroke="#F4F4F5" stroke-width="2" stroke-linecap="round" stroke-linejoin="round"/>
</svg>
