<svg width="201" height="150" viewBox="0 0 201 150" fill="none" xmlns="http://www.w3.org/2000/svg">
<path d="M200.5 130.96H0.5V131.06H200.5V130.96Z" fill="#EEEEF0"/>
<path d="M180.46 137.396H167.212V137.496H180.46V137.396Z" fill="#EEEEF0"/>
<path d="M132.988 138.484H129.512V138.584H132.988V138.484Z" fill="#EEEEF0"/>
<path d="M166.812 133.684H159.136V133.784H166.812V133.684Z" fill="#EEEEF0"/>
<path d="M38.7599 134.356H21.4839V134.456H38.7599V134.356Z" fill="#EEEEF0"/>
<path d="M44.8562 134.356H42.3242V134.456H44.8562V134.356Z" fill="#EEEEF0"/>
<path d="M90.5599 136.044H53.0879V136.144H90.5599V136.044Z" fill="#EEEEF0"/>
<path d="M95.3002 113.12H18.0642C17.4591 113.119 16.8792 112.878 16.4517 112.45C16.0243 112.021 15.7842 111.441 15.7842 110.836V2.264C15.7894 1.66241 16.0319 1.08719 16.4588 0.663287C16.8857 0.239383 17.4626 0.00103055 18.0642 0H95.3002C95.9059 0 96.4869 0.240635 96.9152 0.668968C97.3436 1.0973 97.5842 1.67824 97.5842 2.284V110.836C97.5842 111.442 97.3436 112.023 96.9152 112.451C96.4869 112.879 95.9059 113.12 95.3002 113.12ZM18.0642 0.0800003C17.4856 0.0810599 16.9312 0.311626 16.5224 0.721091C16.1137 1.13056 15.8842 1.68546 15.8842 2.264V110.836C15.8842 111.415 16.1137 111.969 16.5224 112.379C16.9312 112.788 17.4856 113.019 18.0642 113.02H95.3002C95.8791 113.019 96.434 112.788 96.8433 112.379C97.2527 111.97 97.4831 111.415 97.4842 110.836V2.264C97.4831 1.68509 97.2527 1.1302 96.8433 0.720846C96.434 0.311496 95.8791 0.0810577 95.3002 0.0800003H18.0642Z" fill="#EEEEF0"/>
<path d="M181.824 113.12H104.584C103.978 113.119 103.398 112.878 102.97 112.45C102.542 112.022 102.301 111.441 102.3 110.836V2.264C102.306 1.66204 102.549 1.08683 102.977 0.663037C103.404 0.239243 103.982 0.00101932 104.584 0H181.824C182.425 0.0020818 183.001 0.2409 183.427 0.664691C183.853 1.08848 184.095 1.6631 184.1 2.264V110.836C184.1 111.44 183.86 112.02 183.434 112.448C183.007 112.876 182.428 113.118 181.824 113.12ZM104.584 0.0800003C104.005 0.0810577 103.45 0.311496 103.041 0.720846C102.631 1.1302 102.401 1.68509 102.4 2.264V110.836C102.401 111.415 102.631 111.97 103.041 112.379C103.45 112.788 104.005 113.019 104.584 113.02H181.824C182.403 113.019 182.958 112.788 183.367 112.379C183.776 111.97 184.007 111.415 184.008 110.836V2.264C184.007 1.68509 183.776 1.1302 183.367 0.720846C182.958 0.311496 182.403 0.0810577 181.824 0.0800003H104.584Z" fill="#EEEEF0"/>
<path d="M87.88 92.3481H37.312V95.9161H87.88V92.3481Z" fill="#EEEEF0"/>
<path d="M87.8801 92.3481H65.8921V95.9161H87.8801V92.3481Z" fill="#E0E0E0"/>
<path d="M44.784 95.916H37.312V130.96H44.784V95.916Z" fill="#EEEEF0"/>
<path d="M44.784 99.532L37.312 96.988V95.916H44.784V99.532Z" fill="#E0E0E0"/>
<path d="M87.8802 95.916H80.4082V130.96H87.8802V95.916Z" fill="#E0E0E0"/>
<path d="M73.3641 95.916H65.8921V130.96H73.3641V95.916Z" fill="#EEEEF0"/>
<path d="M73.3601 99.532L65.8921 96.988V95.916H73.3601V99.532Z" fill="#E0E0E0"/>
<path d="M59.3001 95.916H51.8281V130.96H59.3001V95.916Z" fill="#E0E0E0"/>
<path d="M92.6319 12.8682H28.8999V67.1362H92.6319V12.8682Z" fill="#EEEEF0"/>
<path d="M92.6318 67.1318H93.3438V12.8638H92.6318V67.1318Z" fill="#E0E0E0"/>
<path d="M90.2363 64.7322V15.2642L31.3043 15.2642V64.7322H90.2363Z" fill="#F4F4F5"/>
<path d="M60.0562 57.2241C63.6562 45.2241 64.6562 27.5241 72.3122 29.9641C79.9682 32.4041 69.9402 58.5761 69.9402 58.5761L60.0562 57.2241Z" fill="white"/>
<path d="M66.2402 57.8198C62.5762 40.4278 63.5002 17.3398 52.1162 17.8678C40.7322 18.3958 52.1162 58.5758 52.1162 58.5758L66.2402 57.8198Z" fill="white"/>
<path d="M74.2838 55.8682H49.3598C48.8512 55.8518 48.3566 56.036 47.9825 56.3809C47.6084 56.7258 47.3847 57.2039 47.3598 57.7122C46.8518 69.1922 48.7318 80.9122 52.2318 92.3482H71.3158C74.8158 80.8922 76.6958 69.1922 76.1878 57.7122C76.1683 57.219 75.9596 56.7523 75.6051 56.4089C75.2505 56.0656 74.7774 55.8719 74.2838 55.8682Z" fill="#EEEEF0"/>
<path d="M130.98 18.9199H129.576V130.96H130.98V18.9199Z" fill="#E0E0E0"/>
<path d="M163.976 18.9199H162.572V130.96H163.976V18.9199Z" fill="#E0E0E0"/>
<path d="M121.024 18.9199H119.62V130.96H121.024V18.9199Z" fill="#EEEEF0"/>
<path d="M154.02 18.9199H152.616V130.96H154.02V18.9199Z" fill="#EEEEF0"/>
<path d="M163.976 18.1519H119.62V19.6839H163.976V18.1519Z" fill="#EEEEF0"/>
<path d="M163.976 45.5879H119.62V47.1199H163.976V45.5879Z" fill="#EEEEF0"/>
<path d="M163.976 73.0239H119.62V74.5559H163.976V73.0239Z" fill="#EEEEF0"/>
<path d="M163.976 100.46H119.62V101.992H163.976V100.46Z" fill="#EEEEF0"/>
<path d="M163.976 127.896H119.62V129.428H163.976V127.896Z" fill="#EEEEF0"/>
<path d="M163.976 18.1519H154.02V19.6839H163.976V18.1519Z" fill="#E0E0E0"/>
<path d="M163.976 45.5879H154.02V47.1199H163.976V45.5879Z" fill="#E0E0E0"/>
<path d="M163.976 73.0239H154.02V74.5559H163.976V73.0239Z" fill="#E0E0E0"/>
<path d="M163.976 100.46H154.02V101.992H163.976V100.46Z" fill="#E0E0E0"/>
<path d="M163.976 127.896H154.02V129.428H163.976V127.896Z" fill="#E0E0E0"/>
<path d="M137.512 27.4842V25.3242H132.18V27.4842C132.18 28.1614 131.912 28.8109 131.433 29.2902C130.955 29.7694 130.305 30.0392 129.628 30.0402C128.951 30.0402 128.302 30.309 127.822 30.7874C127.343 31.2659 127.073 31.915 127.072 32.5922V45.6002H142.624V32.5922C142.623 31.915 142.353 31.2659 141.874 30.7874C141.395 30.309 140.745 30.0402 140.068 30.0402C139.39 30.0402 138.74 29.7709 138.261 29.2916C137.782 28.8122 137.512 28.1621 137.512 27.4842Z" fill="#EEEEF0"/>
<path d="M148.548 64.104H125.18V73.028H148.548V64.104Z" fill="#EEEEF0"/>
<path d="M148.548 73.0239H152.616V64.0999H148.548V73.0239Z" fill="#E6E6E6"/>
<path d="M148.548 69.0562H152.616V68.0721H148.548V69.0562Z" fill="#EEEEF0"/>
<path d="M148.548 68.0718H125.18V69.0558H148.548V68.0718Z" fill="#F4F4F5"/>
<path d="M142.288 112.12H124.036V127.896H142.288V112.12Z" fill="#EEEEF0"/>
<path d="M142.288 127.9H145.464V112.124H142.288V127.9Z" fill="#E6E6E6"/>
<path d="M142.288 120.88H145.464V119.14H142.288V120.88Z" fill="#EEEEF0"/>
<path d="M142.288 119.14H124.036V120.88H142.288V119.14Z" fill="#F4F4F5"/>
<path d="M142.288 117.92H145.464V117.3H142.288V117.92Z" fill="#EEEEF0"/>
<path d="M142.288 117.3H124.036V117.92H142.288V117.3Z" fill="#F4F4F5"/>
<path d="M128.484 84.4199H125.18V100.46H128.484V84.4199Z" fill="#EEEEF0"/>
<path d="M128.484 90.1357H125.18V94.7437H128.484V90.1357Z" fill="#EEEEFF"/>
<path d="M128.484 100.464H139.724V84.4239H128.484V100.464Z" fill="#E6E6E6"/>
<path d="M133.588 82.3481H129.856V100.46H133.588V82.3481Z" fill="#EEEEF0"/>
<path d="M133.588 88.104H129.856V90.892H133.588V88.104Z" fill="#EEEEFF"/>
<path d="M133.588 92.7603H129.856V95.5483H133.588V92.7603Z" fill="#EEEEFF"/>
<path d="M133.592 100.46H146.284V82.348H133.592V100.46Z" fill="#E0E0E0"/>
<path d="M137.744 84.4199H135.732V100.46H137.744V84.4199Z" fill="#EEEEF0"/>
<path d="M137.396 86.4521H136.076V98.4281H137.396V86.4521Z" fill="#EEEEFF"/>
<path d="M137.74 100.464H144.576V84.4239H137.74V100.464Z" fill="#E6E6E6"/>
<path d="M143.116 83.5762H140.844V100.46H143.116V83.5762Z" fill="#EEEEF0"/>
<path d="M143.116 88.9399H140.844V91.5399H143.116V88.9399Z" fill="#EEEEFF"/>
<path d="M143.116 93.2842H140.844V95.8842H143.116V93.2842Z" fill="#EEEEFF"/>
<path d="M143.116 100.46H150.836V83.576H143.116V100.46Z" fill="#E0E0E0"/>
<path d="M142.083 62.647C144.026 60.7037 144.026 57.5531 142.083 55.6099C140.14 53.6666 136.989 53.6666 135.046 55.6099C133.103 57.5531 133.103 60.7037 135.046 62.647C136.989 64.5902 140.14 64.5902 142.083 62.647Z" fill="#F4F4F5"/>
<path d="M144.625 64.0484C146.504 63.7433 147.781 61.9722 147.476 60.0925C147.17 58.2128 145.399 56.9364 143.52 57.2415C141.64 57.5466 140.364 59.3177 140.669 61.1974C140.974 63.0771 142.745 64.3535 144.625 64.0484Z" fill="#EEEEF0"/>
<path d="M100.5 149.024C143.333 149.024 178.056 146.997 178.056 144.496C178.056 141.995 143.333 139.968 100.5 139.968C57.6669 139.968 22.9438 141.995 22.9438 144.496C22.9438 146.997 57.6669 149.024 100.5 149.024Z" fill="#F4F4F5"/>
<path d="M50.9438 113.476H102.32V140C102.32 140.34 102.253 140.676 102.123 140.99C101.993 141.304 101.802 141.59 101.562 141.83C101.322 142.07 101.036 142.261 100.722 142.391C100.408 142.521 100.072 142.588 99.7318 142.588H53.5318C53.192 142.588 52.8555 142.521 52.5415 142.391C52.2275 142.261 51.9422 142.07 51.7019 141.83C51.4615 141.59 51.2709 141.304 51.1408 140.99C51.0108 140.676 50.9438 140.34 50.9438 140V113.476Z" fill="#8184F8"/>
<path d="M50.9438 113.476H87.2998L82.8278 107.752C82.3358 107.124 81.1198 106.616 80.1078 106.616H47.4117C46.4037 106.616 45.9797 107.124 46.4718 107.752L50.9438 113.476Z" fill="#8184F8"/>
<path opacity="0.2" d="M50.9438 113.476H87.2998L82.8278 107.752C82.3358 107.124 81.1198 106.616 80.1078 106.616H47.4117C46.4037 106.616 45.9797 107.124 46.4718 107.752L50.9438 113.476Z" fill="#27272A"/>
<path d="M102.32 113.476H65.9678L70.4398 109.744C70.9318 109.344 72.1478 109.004 73.1598 109.004H105.852C106.864 109.004 107.284 109.336 106.792 109.744L102.32 113.476Z" fill="#8184F8"/>
<path opacity="0.2" d="M65.9678 113.476H102.32V140C102.32 140.34 102.253 140.676 102.123 140.99C101.993 141.304 101.802 141.59 101.562 141.83C101.321 142.07 101.036 142.261 100.722 142.391C100.408 142.521 100.072 142.588 99.7318 142.588H68.5558C68.2159 142.588 67.8794 142.521 67.5654 142.391C67.2514 142.261 66.9661 142.07 66.7258 141.83C66.4855 141.59 66.2948 141.304 66.1648 140.99C66.0347 140.676 65.9678 140.34 65.9678 140V113.476Z" fill="white"/>
<path opacity="0.5" d="M55.4561 113.476V131.668L56.7121 130.676L57.5961 131.668L58.3641 130.564L59.1521 131.668L60.2481 130.84L61.4561 131.668V113.476H55.4561Z" fill="white"/>
<path d="M63.5879 73.7922L57.1279 68.3682" stroke="#8184F8" stroke-miterlimit="10"/>
<path d="M66.9358 76.6038L64.9678 74.9478" stroke="#8184F8" stroke-miterlimit="10"/>
<path d="M86.2881 87.9561L107.6 61.3201L79.2241 37.4961L60.4241 59.0681L57.6241 64.4641C57.4851 64.6173 57.3792 64.7975 57.313 64.9935C57.2468 65.1894 57.2217 65.397 57.2394 65.6031C57.257 65.8092 57.317 66.0094 57.4155 66.1913C57.5141 66.3732 57.6491 66.5328 57.8121 66.6601L83.4121 88.1561C83.8284 88.4915 84.356 88.6573 84.8893 88.6202C85.4226 88.5831 85.9223 88.3459 86.2881 87.9561Z" fill="#8184F8"/>
<path opacity="0.5" d="M71.672 68.312L68.604 73.252L69.84 73.52L70.26 74.664L71.08 74.712L71.46 75.692L72.464 75.984L73.236 77.212L76.304 72.272L71.672 68.312Z" fill="white"/>
<path opacity="0.1" d="M106.672 60.5401L87.5601 81.8601L60.4121 59.0681L79.2241 37.4961L106.672 60.5401Z" fill="#27272A"/>
<path d="M106.672 60.54L87.5596 81.86L95.4716 82.444L114.288 60.872L106.672 60.54Z" fill="#8184F8"/>
<path opacity="0.3" d="M106.672 60.54L87.5596 81.86L95.4716 82.444L114.288 60.872L106.672 60.54Z" fill="#27272A"/>
<path d="M71.6121 37.1602L52.4961 58.4842L60.4121 59.0682L79.2241 37.4962L71.6121 37.1602Z" fill="#8184F8"/>
<path opacity="0.4" d="M71.6121 37.1602L52.4961 58.4842L60.4121 59.0682L79.2241 37.4962L71.6121 37.1602Z" fill="#27272A"/>
<path opacity="0.1" d="M100.788 67.1041L106.672 60.5401L79.2239 37.4961L75.7119 45.9601L100.788 67.1041Z" fill="#27272A"/>
<path opacity="0.2" d="M60.4121 59.0681L79.2241 37.4961L75.7121 45.9601L62.4641 60.7921L60.4121 59.0681Z" fill="#27272A"/>
<path d="M113.3 20.3999C113.376 20.6559 113.3 20.9079 113.132 20.9559C112.964 21.0039 112.768 20.8359 112.692 20.5799C112.616 20.3239 112.692 20.0719 112.86 20.0199C113.028 19.9679 113.228 20.1439 113.3 20.3999Z" fill="#1B1C4B"/>
<path d="M113.328 20.9038C113.253 21.7839 113.056 22.6494 112.744 23.4758C112.958 23.55 113.185 23.5766 113.411 23.5538C113.636 23.531 113.853 23.4593 114.048 23.3438L113.328 20.9038Z" fill="#EDA77E"/>
<path d="M113.832 18.6922C113.866 18.6727 113.892 18.6414 113.904 18.6042C113.912 18.5848 113.915 18.5641 113.914 18.5433C113.914 18.5225 113.908 18.5022 113.899 18.4834C113.89 18.4647 113.878 18.448 113.862 18.4343C113.846 18.4207 113.828 18.4105 113.808 18.4042C113.574 18.3144 113.321 18.2824 113.072 18.3109C112.823 18.3395 112.584 18.4277 112.376 18.5682C112.349 18.5956 112.333 18.6319 112.33 18.6704C112.328 18.7088 112.339 18.7469 112.363 18.7775C112.386 18.8082 112.42 18.8294 112.458 18.8372C112.495 18.845 112.535 18.839 112.568 18.8202C112.734 18.7112 112.924 18.6435 113.122 18.6226C113.319 18.6017 113.519 18.6283 113.704 18.7002C113.725 18.7078 113.747 18.711 113.769 18.7096C113.791 18.7082 113.813 18.7023 113.832 18.6922Z" fill="#1B1C4B"/>
<path d="M122.196 22.1119C122.372 24.2319 122.896 28.1119 124.148 29.0079C124.148 29.0079 123.852 31.5559 119.348 32.2079C114.412 32.9359 116.628 30.1039 116.628 30.1039C119.224 29.0639 118.86 27.0759 118.116 25.2679L120.02 23.0839C120.752 22.2759 122.1 21.0279 122.196 22.1119Z" fill="#E8AE83"/>
<path d="M125.76 30.0441C126.16 29.6801 125.36 28.2241 124.868 28.0201C123.58 27.4801 118.312 28.0201 116.332 29.7201C116.168 30.0014 116.069 30.3158 116.042 30.6404C116.015 30.965 116.061 31.2916 116.176 31.5961L125.76 30.0441Z" fill="white"/>
<path d="M142.536 136.964C142.406 137.023 142.265 137.056 142.122 137.06C141.979 137.064 141.837 137.039 141.704 136.988C141.651 136.946 141.612 136.889 141.593 136.825C141.574 136.76 141.575 136.692 141.596 136.628C141.606 136.575 141.628 136.526 141.66 136.483C141.692 136.44 141.733 136.405 141.78 136.38C142.212 136.128 143.28 136.46 143.324 136.476C143.338 136.48 143.351 136.488 143.361 136.499C143.371 136.511 143.378 136.525 143.38 136.54C143.382 136.556 143.379 136.572 143.372 136.586C143.365 136.6 143.353 136.612 143.34 136.62C143.084 136.761 142.815 136.877 142.536 136.964ZM141.952 136.476L141.86 136.516C141.832 136.531 141.809 136.551 141.79 136.576C141.771 136.601 141.758 136.629 141.752 136.66C141.724 136.804 141.78 136.848 141.796 136.86C141.988 136.996 142.64 136.8 143.092 136.572C142.723 136.456 142.334 136.423 141.952 136.476Z" fill="#8184F8"/>
<path d="M143.324 136.624C143.311 136.628 143.297 136.628 143.284 136.624C142.884 136.544 142.048 136.044 142.004 135.668C141.998 135.609 142.013 135.549 142.045 135.499C142.078 135.45 142.127 135.413 142.184 135.396C142.24 135.371 142.3 135.358 142.36 135.358C142.421 135.358 142.481 135.371 142.536 135.396C143 135.588 143.36 136.484 143.372 136.52C143.38 136.532 143.384 136.546 143.384 136.56C143.384 136.574 143.38 136.588 143.372 136.6C143.367 136.607 143.36 136.613 143.351 136.618C143.343 136.622 143.334 136.624 143.324 136.624ZM142.284 135.532C142.273 135.528 142.26 135.528 142.248 135.532C142.156 135.572 142.16 135.62 142.164 135.64C142.188 135.864 142.756 136.268 143.16 136.416C143.04 136.156 142.76 135.652 142.476 135.532C142.415 135.508 142.346 135.508 142.284 135.532Z" fill="#8184F8"/>
<path d="M119.092 141.26C118.664 141.26 118.252 141.2 118.112 141.008C118.076 140.958 118.057 140.898 118.057 140.836C118.057 140.774 118.076 140.714 118.112 140.664C118.138 140.618 118.174 140.577 118.217 140.545C118.259 140.513 118.308 140.489 118.36 140.476C118.916 140.328 120.084 140.992 120.132 141.02C120.147 141.027 120.159 141.039 120.166 141.054C120.174 141.068 120.177 141.085 120.174 141.101C120.171 141.117 120.163 141.132 120.151 141.144C120.139 141.155 120.124 141.162 120.108 141.164C119.773 141.227 119.433 141.259 119.092 141.26ZM118.564 140.612C118.512 140.61 118.461 140.617 118.412 140.632C118.348 140.646 118.292 140.685 118.256 140.74C118.2 140.84 118.22 140.888 118.256 140.916C118.412 141.132 119.256 141.136 119.856 141.048C119.457 140.821 119.019 140.673 118.564 140.612Z" fill="#8184F8"/>
<path d="M120.1 141.168H120.068C119.668 140.988 118.868 140.264 118.928 139.888C118.928 139.8 119.008 139.688 119.224 139.668C119.302 139.659 119.381 139.667 119.456 139.69C119.531 139.714 119.601 139.752 119.66 139.804C120.088 140.152 120.176 141.052 120.18 141.088C120.182 141.102 120.18 141.116 120.175 141.129C120.169 141.142 120.16 141.152 120.148 141.16C120.133 141.168 120.116 141.171 120.1 141.168ZM119.3 139.816H119.252C119.108 139.816 119.1 139.888 119.096 139.904C119.06 140.132 119.604 140.704 120.012 140.948C119.977 140.566 119.823 140.205 119.572 139.916C119.497 139.85 119.4 139.814 119.3 139.816Z" fill="#8184F8"/>
<path d="M123.772 141.088H120.432L120.1 133.36H123.44L123.772 141.088Z" fill="#E8AE83"/>
<path d="M147.232 135.812L144.156 136.872L140.964 129.588L144.04 128.528L147.232 135.812Z" fill="#E8AE83"/>
<path d="M143.424 136.108L147.024 135.008C147.087 134.988 147.156 134.991 147.218 135.016C147.279 135.041 147.331 135.086 147.364 135.144L148.864 137.784C148.9 137.849 148.921 137.92 148.925 137.994C148.929 138.068 148.917 138.142 148.889 138.21C148.861 138.279 148.818 138.34 148.763 138.389C148.708 138.439 148.643 138.475 148.572 138.496C147.312 138.86 146.684 138.972 145.108 139.456C144.136 139.752 141.688 140.68 140.308 140.956C138.928 141.232 138.484 139.912 139.02 139.676C141.42 138.616 142.404 137.412 142.976 136.476C143.075 136.303 143.235 136.172 143.424 136.108Z" fill="#1B1C4B"/>
<path d="M120.456 140.7H124.1C124.166 140.701 124.23 140.724 124.281 140.765C124.332 140.807 124.369 140.864 124.384 140.928L125.044 143.896C125.06 143.968 125.06 144.042 125.043 144.114C125.027 144.185 124.994 144.252 124.948 144.309C124.902 144.366 124.843 144.412 124.777 144.443C124.71 144.474 124.637 144.489 124.564 144.488C123.248 144.468 121.364 144.388 119.696 144.388C117.764 144.388 116.952 144.496 114.684 144.496C113.316 144.496 112.936 143.112 113.508 142.984C116.12 142.412 117.396 142.352 119.652 140.96C119.891 140.802 120.169 140.712 120.456 140.7Z" fill="#1B1C4B"/>
<path d="M130.156 31.1357C131.128 32.0277 131.968 32.9197 132.84 33.8517C133.712 34.7837 134.52 35.7477 135.304 36.7757C136.122 37.8201 136.866 38.9216 137.528 40.0717C137.889 40.7057 138.202 41.3663 138.464 42.0477C138.532 42.2357 138.6 42.4157 138.656 42.6197C138.721 42.8261 138.776 43.0357 138.82 43.2477L138.888 43.5797L138.936 43.9477C138.98 44.2849 138.98 44.6266 138.936 44.9637C138.844 45.6002 138.609 46.2075 138.248 46.7397C137.984 47.1284 137.675 47.4843 137.328 47.7997C136.768 48.307 136.157 48.7535 135.504 49.1317C134.353 49.7902 133.148 50.3508 131.904 50.8077C129.542 51.6843 127.109 52.3535 124.632 52.8077L123.932 50.4077C126.104 49.4677 128.304 48.4517 130.332 47.3677C131.319 46.8499 132.269 46.2645 133.176 45.6157C133.553 45.3475 133.901 45.039 134.212 44.6957C134.306 44.5943 134.386 44.4798 134.448 44.3557C134.48 44.2877 134.448 44.2957 134.408 44.4397C134.38 44.7077 134.384 44.4997 134.32 44.3557C134.3 44.2877 134.264 44.1957 134.228 44.1077C134.192 44.0197 134.148 43.9197 134.104 43.8237C133.887 43.3875 133.645 42.9641 133.38 42.5557C132.762 41.6385 132.094 40.7558 131.38 39.9117C130.644 39.0397 129.868 38.1717 129.072 37.3197C128.276 36.4677 127.44 35.6077 126.672 34.8157L130.156 31.1357Z" fill="#E8AE83"/>
<path d="M124.848 50.0278L121.7 50.9798L123.724 54.3078C123.724 54.3078 125.584 53.5398 125.996 51.9598L124.848 50.0278Z" fill="#E8AE83"/>
<path d="M120.428 52.16L121.668 54.904L123.704 54.312L121.68 50.98L120.428 52.16Z" fill="#E8AE83"/>
<path d="M122.78 32.0399C122.48 35.2399 129.248 40.1919 129.248 40.1919L135.764 35.7319C134.633 33.645 132.979 31.8877 130.964 30.6319C127.228 28.2399 123.156 28.0639 122.78 32.0399Z" fill="#8184F8"/>
<g opacity="0.3">
<path d="M122.78 32.0399C122.48 35.2399 129.248 40.1919 129.248 40.1919L135.764 35.7319C134.633 33.645 132.979 31.8877 130.964 30.6319C127.228 28.2399 123.156 28.0639 122.78 32.0399Z" fill="white"/>
</g>
<path d="M111.7 31.7838C111.7 31.7838 108.776 36.2718 115.72 60.3438L133.376 57.7358C133.128 55.2958 130.176 44.6518 130.076 33.0158C130.072 32.4539 129.954 31.8987 129.729 31.3835C129.505 30.8684 129.178 30.4042 128.769 30.0188C128.36 29.6334 127.877 29.3348 127.35 29.1411C126.822 28.9475 126.261 28.8627 125.7 28.8918C125.188 28.9198 124.66 28.9558 124.136 29.0078C121.615 29.2326 119.11 29.6025 116.632 30.1158C114.948 30.5444 113.299 31.1021 111.7 31.7838Z" fill="#8184F8"/>
<g opacity="0.3">
<path d="M111.7 31.7838C111.7 31.7838 108.776 36.2718 115.72 60.3438L133.376 57.7358C133.128 55.2958 130.176 44.6518 130.076 33.0158C130.072 32.4539 129.954 31.8987 129.729 31.3835C129.505 30.8684 129.178 30.4042 128.769 30.0188C128.36 29.6334 127.877 29.3348 127.35 29.1411C126.822 28.9475 126.261 28.8627 125.7 28.8918C125.188 28.9198 124.66 28.9558 124.136 29.0078C121.615 29.2326 119.11 29.6025 116.632 30.1158C114.948 30.5444 113.299 31.1021 111.7 31.7838Z" fill="white"/>
</g>
<path opacity="0.2" d="M111.268 39.5201L111.328 39.4521L115.48 39.8201C116.112 42.5001 113.8 46.1561 112.58 47.8521C111.992 45.1005 111.554 42.3191 111.268 39.5201Z" fill="#27272A"/>
<path opacity="0.2" d="M120.1 133.364L120.272 137.348H123.612L123.44 133.364H120.1Z" fill="#27272A"/>
<path opacity="0.2" d="M144.04 128.528L140.964 129.588L142.612 133.344L145.688 132.284L144.04 128.528Z" fill="#27272A"/>
<path d="M121.76 17.3282C122.496 20.5562 123.088 22.4082 121.964 24.5282C120.276 27.6842 115.932 27.3802 114.248 24.4362C112.732 21.7842 111.78 16.9522 114.516 14.7762C115.116 14.2948 115.828 13.9743 116.586 13.8451C117.344 13.7158 118.122 13.7821 118.848 14.0376C119.573 14.2931 120.221 14.7294 120.731 15.3052C121.24 15.881 121.595 16.5773 121.76 17.3282Z" fill="#E8AE83"/>
<path d="M115.276 20.4918L114.048 21.2438L114.164 17.0438C113.373 17.0778 112.592 16.8516 111.94 16.3998C112.384 15.9758 119.296 13.5558 121.452 13.9758C121.676 13.8838 121.948 13.4678 121.948 13.4678C121.948 13.4678 122.032 13.9918 121.668 14.1918C121.932 14.1398 122.592 14.2678 122.776 14.6558C122.474 14.5731 122.152 14.5913 121.86 14.7078C121.86 14.7078 124.26 15.0718 123.408 18.3998C122.452 22.0678 122.768 24.1758 122.768 24.1758C122.768 24.1758 120.984 25.5558 119.432 25.2998C117.776 23.4758 115.384 21.2838 115.276 20.4918Z" fill="#1B1C4B"/>
<path d="M112.924 16.0682C110.976 16.0682 110.276 15.1162 109.776 14.3162C111.176 14.1682 114.092 13.2682 116.256 13.1162C118.42 12.9642 120.792 13.3682 120.076 14.3162C119.36 15.2642 112.924 16.0682 112.924 16.0682Z" fill="#1B1C4B"/>
<path d="M113.352 15.1999C111.752 14.9759 110.192 13.4679 111.392 12.0239C111.836 13.0839 114.832 12.9599 116.96 12.5159C119.76 11.9319 121.7 12.8759 120.708 14.7839C120.164 15.8279 113.352 15.1999 113.352 15.1999Z" fill="#1B1C4B"/>
<path d="M117.004 19.5361C117.233 20.3259 117.196 21.169 116.9 21.9361C116.5 22.9401 115.612 22.7361 115.148 21.8681C114.748 21.0681 114.444 19.6161 115.124 18.8921C115.804 18.1681 116.716 18.5881 117.004 19.5361Z" fill="#E8AE83"/>
<path d="M121.984 59.4198C121.984 59.4198 124.848 83.7998 126.928 93.3518C129.204 103.816 140.432 132.344 140.432 132.344L146.032 130.408C146.032 130.408 138.832 108.928 136.92 94.2998C135.452 83.0678 133.36 57.7358 133.36 57.7358L121.984 59.4198Z" fill="#1B1C4B"/>
<path d="M139 130.552C138.972 130.552 140.148 132.952 140.148 132.952L146.688 130.828L145.92 128.876L139 130.552Z" fill="#8184F8"/>
<path opacity="0.3" d="M123.564 71.9277C124.46 78.7037 125.608 86.7277 126.616 91.8517C128.1 83.9997 128.448 74.0837 123.564 71.9277Z" fill="#27272A"/>
<path d="M115.72 60.3438C115.72 60.3438 113.344 83.2478 113.72 93.4238C114.096 104.008 119.04 136.576 119.04 136.576H124.692C124.692 136.576 123.652 104.624 123.892 94.2318C124.168 82.8998 128.416 58.4678 128.416 58.4678L115.72 60.3438Z" fill="#1B1C4B"/>
<path d="M117.94 134.324C117.916 134.324 118.26 136.668 118.26 136.668H125.136L125.324 134.576L117.94 134.324Z" fill="#8184F8"/>
<path d="M114.624 37.4077C114 38.3997 113.368 39.2917 112.712 40.2077C112.056 41.1237 111.368 42.0077 110.668 42.8877C109.241 44.6729 107.695 46.3594 106.04 47.9357C105.592 48.3357 105.18 48.7357 104.696 49.0997L104.344 49.3837L104.168 49.5237C104.104 49.5757 104.076 49.6037 103.944 49.6997C103.548 49.9823 103.113 50.206 102.652 50.3637C101.939 50.6072 101.193 50.7421 100.44 50.7637C99.8028 50.7851 99.1649 50.757 98.532 50.6797C96.2185 50.3764 93.9615 49.7377 91.832 48.7837L92.524 46.3837C94.5706 46.6265 96.6316 46.7254 98.692 46.6797C99.1478 46.6558 99.6018 46.6064 100.052 46.5317C100.391 46.4821 100.721 46.3795 101.028 46.2277C101.124 46.1757 101.176 46.1237 101.164 46.1117C101.152 46.0997 101.216 46.0597 101.252 46.0237L101.388 45.8997L101.656 45.6477C102.016 45.3277 102.356 44.9397 102.708 44.5877C103.4 43.8437 104.088 43.0797 104.74 42.2677C105.392 41.4557 106.052 40.6397 106.692 39.7997C107.332 38.9597 107.952 38.1077 108.576 37.2557C109.2 36.4037 109.808 35.5077 110.384 34.6797L114.624 37.4077Z" fill="#E8AE83"/>
<path d="M116.948 36.3479C118.292 40.7479 110.488 45.6239 110.488 45.6239L105.416 39.1639C106.559 37.0339 107.971 35.0591 109.616 33.2879C113.068 29.5319 115.924 32.9999 116.948 36.3479Z" fill="#8184F8"/>
<g opacity="0.3">
<path d="M116.948 36.3479C118.292 40.7479 110.488 45.6239 110.488 45.6239L105.416 39.1639C106.559 37.0339 107.971 35.0591 109.616 33.2879C113.068 29.5319 115.924 32.9999 116.948 36.3479Z" fill="white"/>
</g>
<path d="M93.6998 46.5318L89.5918 45.7798L90.0238 49.3318C90.0238 49.3318 92.1598 50.5318 93.7078 48.6558L93.6998 46.5318Z" fill="#E8AE83"/>
<path d="M88.0078 46.5798L88.8958 49.1438L90.0158 49.3318L89.5838 45.7798L88.0078 46.5798Z" fill="#E8AE83"/>
</svg>
