<svg width="16" height="15" viewBox="0 0 16 15" fill="none" xmlns="http://www.w3.org/2000/svg">
<path d="M11.6388 5.52267L11.4447 5.18003C11.2979 4.9209 11.2246 4.79133 11.0997 4.73967C10.9749 4.688 10.8336 4.72877 10.5512 4.81031L10.0715 4.94779C9.89116 4.99009 9.70199 4.96609 9.53736 4.88003L9.40491 4.80228C9.26373 4.71029 9.15514 4.57465 9.09503 4.41521L8.96374 4.01626C8.87741 3.75225 8.83424 3.62024 8.73148 3.54474C8.62872 3.46924 8.49222 3.46924 8.21922 3.46924H7.78094C7.50794 3.46924 7.37145 3.46924 7.26868 3.54474C7.16592 3.62024 7.12276 3.75225 7.03643 4.01626L6.90513 4.41521C6.84502 4.57465 6.73643 4.71029 6.59525 4.80228L6.46281 4.88003C6.29817 4.96609 6.109 4.99009 5.92869 4.94779L5.44894 4.81031C5.16652 4.72877 5.02531 4.688 4.90045 4.73967C4.7756 4.79133 4.70221 4.9209 4.55545 5.18003L4.36139 5.52267C4.22382 5.76557 4.15503 5.88702 4.16838 6.01631C4.18173 6.1456 4.27382 6.24978 4.45799 6.45816L4.86335 6.91924C4.96243 7.04685 5.03277 7.26924 5.03277 7.46917C5.03277 7.66924 4.96245 7.89156 4.86336 8.01919L4.45799 8.48028C4.27382 8.68866 4.18173 8.79285 4.16838 8.92213C4.15503 9.05142 4.22382 9.17288 4.36139 9.41577L4.55544 9.7584C4.7022 10.0175 4.7756 10.1471 4.90045 10.1988C5.02532 10.2504 5.16653 10.2097 5.44895 10.1281L5.92868 9.99064C6.10902 9.94833 6.29822 9.97234 6.46288 10.0584L6.5953 10.1362C6.73645 10.2282 6.84502 10.3638 6.90512 10.5232L7.03643 10.9222C7.12276 11.1862 7.16592 11.3182 7.26868 11.3937C7.37145 11.4692 7.50794 11.4692 7.78094 11.4692L8.21922 11.4692C8.49222 11.4692 8.62872 11.4692 8.73148 11.3937C8.83424 11.3182 8.87741 11.1862 8.96374 10.9222L9.09505 10.5232C9.15514 10.3638 9.26371 10.2282 9.40486 10.1362L9.53729 10.0584C9.70194 9.97234 9.89115 9.94833 10.0715 9.99064L10.5512 10.1281C10.8336 10.2097 10.9748 10.2504 11.0997 10.1988C11.2246 10.1471 11.298 10.0175 11.4447 9.7584L11.6388 9.41577C11.7763 9.17288 11.8451 9.05142 11.8318 8.92213C11.8184 8.79285 11.7263 8.68866 11.5422 8.48028L11.1368 8.01919C11.0377 7.89156 10.9674 7.66924 10.9674 7.46917C10.9674 7.26924 11.0377 7.04685 11.1368 6.91924L11.5422 6.45816C11.7263 6.24978 11.8184 6.1456 11.8318 6.01631C11.8451 5.88702 11.7763 5.76557 11.6388 5.52267Z" stroke="#F4F4F5" stroke-width="1.5" stroke-linecap="round"/>
<circle cx="8.00004" cy="7.46916" r="1.16667" stroke="#F4F4F5" stroke-width="1.5"/>
<path d="M12.6667 0.80249V2.7082C11.4642 1.52937 9.81701 0.80249 8.00004 0.80249C4.31814 0.80249 1.33337 3.78726 1.33337 7.46916C1.33337 8.4173 1.5313 9.31921 1.8881 10.1358M3.33337 14.1358L3.33337 12.2301C4.53587 13.4089 6.18307 14.1358 8.00004 14.1358C11.6819 14.1358 14.6667 11.1511 14.6667 7.46916C14.6667 6.52102 14.4688 5.61911 14.112 4.80249" stroke="#F4F4F5" stroke-width="1.5" stroke-linecap="round" stroke-linejoin="round"/>
</svg>
