<svg width="16" height="16" viewBox="0 0 16 16" fill="none" xmlns="http://www.w3.org/2000/svg">
<path d="M14.2116 4.99563L13.8826 4.42456C13.6337 3.99268 13.5093 3.77673 13.2975 3.69062C13.0858 3.60451 12.8464 3.67246 12.3675 3.80836L11.554 4.03749C11.2483 4.10799 10.9275 4.068 10.6483 3.92456L10.4237 3.79498C10.1844 3.64166 10.0002 3.41559 9.8983 3.14986L9.67567 2.48494C9.52928 2.04493 9.45609 1.82492 9.28184 1.69908C9.10759 1.57324 8.87614 1.57324 8.41323 1.57324L7.67005 1.57324C7.20714 1.57324 6.97569 1.57324 6.80144 1.69908C6.62719 1.82492 6.554 2.04493 6.40762 2.48494L6.18498 3.14986C6.08306 3.41559 5.89893 3.64166 5.65954 3.79498L5.43495 3.92456C5.15578 4.068 4.83502 4.10799 4.52928 4.03749L3.71579 3.80836C3.2369 3.67246 2.99746 3.60451 2.78574 3.69062C2.57402 3.77673 2.44959 3.99268 2.20073 4.42456L1.87167 4.99563C1.6384 5.40046 1.52176 5.60288 1.5444 5.81836C1.56704 6.03384 1.72318 6.20749 2.03547 6.55478L2.72283 7.32325C2.89083 7.53593 3.0101 7.90658 3.0101 8.2398C3.0101 8.57324 2.89086 8.94378 2.72284 9.1565L2.03547 9.92498C1.72318 10.2723 1.56704 10.4459 1.5444 10.6614C1.52176 10.8769 1.6384 11.0793 1.87167 11.4841L2.20072 12.0552C2.44958 12.4871 2.57402 12.703 2.78574 12.7891C2.99746 12.8752 3.23691 12.8073 3.7158 12.6714L4.52925 12.4422C4.83504 12.3717 5.15587 12.4117 5.43507 12.5552L5.65962 12.6848C5.89896 12.8382 6.08305 13.0642 6.18496 13.3299L6.40762 13.9949C6.554 14.4349 6.62719 14.6549 6.80144 14.7807C6.97569 14.9066 7.20714 14.9066 7.67005 14.9066H8.41323C8.87614 14.9066 9.10759 14.9066 9.28184 14.7807C9.45609 14.6549 9.52928 14.4349 9.67567 13.9949L9.89833 13.3299C10.0002 13.0642 10.1843 12.8382 10.4237 12.6848L10.6482 12.5552C10.9274 12.4117 11.2482 12.3717 11.554 12.4422L12.3675 12.6714C12.8464 12.8073 13.0858 12.8752 13.2975 12.7891C13.5093 12.703 13.6337 12.4871 13.8826 12.0552L13.8826 12.0552L14.2116 11.4841C14.4449 11.0793 14.5615 10.8769 14.5389 10.6614C14.5162 10.4459 14.3601 10.2723 14.0478 9.92498L13.3604 9.1565C13.1924 8.94378 13.0732 8.57324 13.0732 8.2398C13.0732 7.90658 13.1925 7.53593 13.3605 7.32325L14.0478 6.55478C14.3601 6.20749 14.5162 6.03384 14.5389 5.81836C14.5615 5.60288 14.4449 5.40046 14.2116 4.99563Z" stroke="#F4F4F5" stroke-width="1.5" stroke-linecap="round"/>
<path d="M10.3464 8.2347C10.3464 9.52336 9.30169 10.568 8.01302 10.568C6.72436 10.568 5.67969 9.52336 5.67969 8.2347C5.67969 6.94604 6.72436 5.90137 8.01302 5.90137C9.30169 5.90137 10.3464 6.94604 10.3464 8.2347Z" stroke="#F4F4F5" stroke-width="1.5"/>
</svg>
