<svg width="16" height="15" viewBox="0 0 16 15" fill="none" xmlns="http://www.w3.org/2000/svg">
<path d="M1.5738 9.20019C1.32339 7.81918 1.19818 7.12868 1.55394 6.66074C1.57766 6.62954 1.60274 6.5994 1.62911 6.57042C2.02461 6.13574 2.72453 6.13574 4.12437 6.13574H11.8757C13.2755 6.13574 13.9755 6.13574 14.371 6.57042C14.3973 6.5994 14.4224 6.62954 14.4461 6.66074C14.8019 7.12868 14.6767 7.81918 14.4263 9.20019C14.0662 11.1859 13.8862 12.1787 13.2073 12.7886C13.161 12.8302 13.1132 12.8701 13.0641 12.9084C12.3443 13.4691 11.3379 13.4691 9.32514 13.4691H6.67495C4.6622 13.4691 3.65582 13.4691 2.93595 12.9084C2.88685 12.8701 2.8391 12.8302 2.7928 12.7886C2.11388 12.1787 1.93385 11.1859 1.5738 9.20019Z" stroke="#F4F4F5" stroke-width="1.5"/>
<path d="M5.34662 2.87656H10.538C11.4107 2.87656 12.5039 2.75132 13.0642 3.5679C13.3334 3.96025 13.3334 5.04346 13.3334 6.13582M8.00889 2.87656L7.49984 1.88512C7.32118 1.53715 7.15405 1.11603 6.78876 0.925432C6.55314 0.80249 6.26911 0.80249 5.70104 0.80249C4.36739 0.80249 3.70057 0.80249 3.25528 1.16615C2.51052 1.7744 2.68436 3.0228 2.68436 3.86985V6.13582" stroke="#F4F4F5" stroke-width="1.5" stroke-linecap="round"/>
</svg>
