<svg width="16" height="13" viewBox="0 0 16 13" fill="none" xmlns="http://www.w3.org/2000/svg">
<path d="M13.8494 10.4692C14.3489 10.4692 14.7462 10.1549 15.103 9.71534C15.8333 8.81554 14.6342 8.09646 14.1769 7.74431C13.712 7.38632 13.1929 7.18352 12.6667 7.13591M12 5.80257C12.9205 5.80257 13.6667 5.05638 13.6667 4.1359C13.6667 3.21543 12.9205 2.46924 12 2.46924" stroke="#F4F4F5" stroke-width="1.5" stroke-linecap="round"/>
<path d="M2.1506 10.4692C1.65106 10.4692 1.25374 10.1549 0.89699 9.71534C0.166685 8.81554 1.36574 8.09646 1.82306 7.74431C2.28794 7.38632 2.80701 7.18352 3.33329 7.13591M3.66663 5.80257C2.74615 5.80257 1.99996 5.05638 1.99996 4.1359C1.99996 3.21543 2.74615 2.46924 3.66663 2.46924" stroke="#F4F4F5" stroke-width="1.5" stroke-linecap="round"/>
<path d="M5.38916 8.54353C4.70798 8.96473 2.92195 9.82479 4.00976 10.901C4.54115 11.4267 5.13297 11.8027 5.87704 11.8027H10.1229C10.8669 11.8027 11.4588 11.4267 11.9902 10.901C13.078 9.82479 11.2919 8.96473 10.6108 8.54353C9.01339 7.5558 6.98653 7.5558 5.38916 8.54353Z" stroke="#F4F4F5" stroke-width="1.5" stroke-linecap="round" stroke-linejoin="round"/>
<path d="M10.3333 3.46932C10.3333 4.75798 9.28862 5.80265 7.99996 5.80265C6.71129 5.80265 5.66663 4.75798 5.66663 3.46932C5.66663 2.18066 6.71129 1.13599 7.99996 1.13599C9.28862 1.13599 10.3333 2.18066 10.3333 3.46932Z" stroke="#F4F4F5" stroke-width="1.5"/>
</svg>
