<?xml version="1.0" encoding="UTF-8"?>
<!DOCTYPE svg PUBLIC "-//W3C//DTD SVG 1.1//EN" "http://www.w3.org/Graphics/SVG/1.1/DTD/svg11.dtd">
<!-- Creator: CorelDRAW 2021 (64-Bit) -->
<svg xmlns="http://www.w3.org/2000/svg" xml:space="preserve" width="8.5in" height="11in" version="1.1" style="shape-rendering:geometricPrecision; text-rendering:geometricPrecision; image-rendering:optimizeQuality; fill-rule:evenodd; clip-rule:evenodd"
viewBox="0 0 8500 11000"
 xmlns:xlink="http://www.w3.org/1999/xlink"
 xmlns:xodm="http://www.corel.com/coreldraw/odm/2003">
 <defs>
  <style type="text/css">
   <![CDATA[
    .fil1 {fill:#363965}
    .fil0 {fill:white}
   ]]>
  </style>
     <clipPath id="id0">
      <path d="M2073.52 3323.52l4352.96 0 0 4352.96 -4352.96 0 0 -4352.96z"/>
     </clipPath>
 </defs>
 <g id="Layer_x0020_1">
  <metadata id="CorelCorpID_0Corel-Layer"/>
  <g id="_2230577362928">
   <g>
    <g style="clip-path:url(#id0)">
     <image x="2073.52" y="3323.52" width="4352.96" height="4352.96" xlink:href="heather nm3_Images\heather nm3_ImgID1.png"/>
    </g>
   </g>
   <circle class="fil0" cx="4250" cy="5500" r="1674.21"/>
   <g>
    <path class="fil1" d="M4250 4782.69c221.87,0 401.74,189.24 401.74,422.68 0,231.23 -176.48,419.06 -395.46,422.6l0 0.09 -408.02 0 0 -421.01 0.02 0c0,-0.56 -0.02,-1.12 -0.02,-1.68 0,-233.44 179.87,-422.68 401.74,-422.68z"/>
    <path class="fil1" d="M4084.31 6217.31c128.42,0 232.53,-109.53 232.53,-244.65 0,-133.84 -102.15,-242.56 -228.89,-244.6l0 -0.06 -236.16 0 0 243.69 0.01 0c0,0.32 -0.01,0.65 -0.01,0.97 0,135.11 104.11,244.65 232.53,244.65z"/>
   </g>
  </g>
 </g>
</svg>
